<?xml version="1.0" encoding="utf-8" standalone="no"?>
<!DOCTYPE svg PUBLIC "-//W3C//DTD SVG 1.1//EN"
  "http://www.w3.org/Graphics/SVG/1.1/DTD/svg11.dtd">
<!-- Created with matplotlib (https://matplotlib.org/) -->
<svg height="338.968438pt" version="1.1" viewBox="0 0 379.549375 338.968438" width="379.549375pt" xmlns="http://www.w3.org/2000/svg" xmlns:xlink="http://www.w3.org/1999/xlink">
 <metadata>
  <rdf:RDF xmlns:cc="http://creativecommons.org/ns#" xmlns:dc="http://purl.org/dc/elements/1.1/" xmlns:rdf="http://www.w3.org/1999/02/22-rdf-syntax-ns#">
   <cc:Work>
    <dc:type rdf:resource="http://purl.org/dc/dcmitype/StillImage"/>
    <dc:date>2022-03-10T05:30:58.287863</dc:date>
    <dc:format>image/svg+xml</dc:format>
    <dc:creator>
     <cc:Agent>
      <dc:title>Matplotlib v3.3.4, https://matplotlib.org/</dc:title>
     </cc:Agent>
    </dc:creator>
   </cc:Work>
  </rdf:RDF>
 </metadata>
 <defs>
  <style type="text/css">*{stroke-linecap:butt;stroke-linejoin:round;}</style>
 </defs>
 <g id="figure_1">
  <g id="patch_1">
   <path d="M 0 338.968438 
L 379.549375 338.968438 
L 379.549375 0 
L 0 0 
z
" style="fill:none;"/>
  </g>
  <g id="axes_1">
   <g id="patch_2">
    <path d="M 37.549375 224.64 
L 372.349375 224.64 
L 372.349375 7.2 
L 37.549375 7.2 
z
" style="fill:#ffffff;"/>
   </g>
   <g id="patch_3">
    <path clip-path="url(#p51e29baceb)" d="M 54.289375 224.64 
L 87.769375 224.64 
L 87.769375 17.554286 
L 54.289375 17.554286 
z
"/>
   </g>
   <g id="patch_4">
    <path clip-path="url(#p51e29baceb)" d="M 121.249375 224.64 
L 154.729375 224.64 
L 154.729375 68.716639 
L 121.249375 68.716639 
z
"/>
   </g>
   <g id="patch_5">
    <path clip-path="url(#p51e29baceb)" d="M 188.209375 224.64 
L 221.689375 224.64 
L 221.689375 147.49042 
L 188.209375 147.49042 
z
"/>
   </g>
   <g id="patch_6">
    <path clip-path="url(#p51e29baceb)" d="M 255.169375 224.64 
L 288.649375 224.64 
L 288.649375 158.859832 
L 255.169375 158.859832 
z
"/>
   </g>
   <g id="patch_7">
    <path clip-path="url(#p51e29baceb)" d="M 322.129375 224.64 
L 355.609375 224.64 
L 355.609375 197.028571 
L 322.129375 197.028571 
z
"/>
   </g>
   <g id="matplotlib.axis_1">
    <g id="xtick_1">
     <g id="line2d_1">
      <defs>
       <path d="M 0 0 
L 0 3.5 
" id="m995cd79165" style="stroke:#000000;stroke-width:0.8;"/>
      </defs>
      <g>
       <use style="stroke:#000000;stroke-width:0.8;" x="71.029375" xlink:href="#m995cd79165" y="224.64"/>
      </g>
     </g>
     <g id="text_1">
      <!-- Candidate_YSO -->
      <g transform="translate(74.725156 331.768438)rotate(-90)scale(0.14 -0.14)">
       <defs>
        <path d="M 65.703125 61.5 
C 59.703125 69.296875 50.296875 72.59375 40.703125 72.59375 
C 19.703125 72.59375 4.703125 56.203125 4.703125 35.40625 
C 4.703125 13.90625 20.40625 -1.796875 40.703125 -1.796875 
C 52 -1.796875 61.203125 2.09375 67.5 10.59375 
L 61.203125 15.90625 
C 56.203125 9.5 49.296875 6 40.703125 6 
C 24.796875 6 13.703125 19 13.703125 35.40625 
C 13.703125 50.90625 24.90625 64.796875 40.703125 64.796875 
C 47.5 64.796875 54.203125 61.90625 58.40625 56.203125 
z
" id="AvenirLTStd-Roman-67"/>
        <path d="M 11.703125 35.703125 
C 15.40625 39.09375 20.59375 40.796875 25.59375 40.796875 
C 32.90625 40.796875 37.203125 37.296875 37.203125 30.5 
L 37.203125 29.09375 
L 34.203125 29.09375 
C 22.703125 29.09375 4.703125 28.203125 4.703125 12.703125 
C 4.703125 3.59375 12.59375 -1.203125 22.09375 -1.203125 
C 29.203125 -1.203125 34.40625 2.203125 37.5 7 
L 37.703125 7 
C 37.703125 5 37.703125 2.09375 38.203125 0 
L 45.703125 0 
C 45.296875 2.40625 45 5.40625 45 8.09375 
L 45 28.203125 
C 45 41.40625 39.203125 48 25.40625 48 
C 18.59375 48 11.59375 45.703125 6.796875 40.796875 
z
M 37.203125 22.5 
L 37.203125 19.5 
C 37 11.90625 32.40625 5.40625 23.40625 5.40625 
C 17.5 5.40625 13.09375 7.59375 13.09375 13.5 
C 13.09375 19.796875 19.5 22.5 29.40625 22.5 
z
" id="AvenirLTStd-Roman-97"/>
        <path d="M 7.40625 0 
L 15.203125 0 
L 15.203125 22.796875 
C 15.203125 33.5 19.59375 40.796875 29.703125 40.796875 
C 37 40.796875 40.40625 35.90625 40.40625 28.09375 
L 40.40625 0 
L 48.203125 0 
L 48.203125 28.90625 
C 48.203125 40.203125 42.703125 48 30.40625 48 
C 22.703125 48 16.90625 43.703125 14.796875 39.09375 
L 14.59375 39.09375 
C 14.59375 41.703125 14.40625 44.296875 14.40625 46.796875 
L 7 46.796875 
C 7 43.703125 7.40625 40 7.40625 35.703125 
z
" id="AvenirLTStd-Roman-110"/>
        <path d="M 46.296875 0 
L 54.09375 0 
L 54.09375 75.59375 
L 46.296875 75.59375 
L 46.296875 40 
L 46.09375 40 
C 41.796875 45 36.09375 48 29.296875 48 
C 14.59375 48 4.703125 37.59375 4.703125 23.40625 
C 4.703125 9.40625 15 -1.203125 28.09375 -1.203125 
C 36.5 -1.203125 43.203125 3 46.09375 8.296875 
L 46.296875 8.296875 
z
M 46.296875 23.40625 
C 46.296875 13.59375 39.796875 6 29.703125 6 
C 19.59375 6 13.09375 13.59375 13.09375 23.40625 
C 13.09375 33.203125 19.59375 40.796875 29.703125 40.796875 
C 39.796875 40.796875 46.296875 33.203125 46.296875 23.40625 
z
" id="AvenirLTStd-Roman-100"/>
        <path d="M 8.09375 0 
L 15.90625 0 
L 15.90625 46.796875 
L 8.09375 46.796875 
z
M 6.296875 65.09375 
C 6.296875 61.796875 8.703125 59.40625 12 59.40625 
C 15.296875 59.40625 17.703125 61.796875 17.703125 65.09375 
C 17.703125 68.203125 15.203125 70.796875 12 70.796875 
C 8.796875 70.796875 6.296875 68.203125 6.296875 65.09375 
z
" id="AvenirLTStd-Roman-105"/>
        <path d="M 33 46.796875 
L 19.203125 46.796875 
L 19.203125 60.09375 
L 11.40625 60.09375 
L 11.40625 46.796875 
L 1.203125 46.796875 
L 1.203125 40.203125 
L 11.40625 40.203125 
L 11.40625 14.5 
C 11.40625 4.796875 13.203125 -1.203125 24.296875 -1.203125 
C 27.203125 -1.203125 30.703125 -0.703125 33.40625 0.5 
L 33.09375 7.59375 
C 31 6.5 28.5 6 26.203125 6 
C 19.296875 6 19.203125 10.796875 19.203125 16.796875 
L 19.203125 40.203125 
L 33 40.203125 
z
" id="AvenirLTStd-Roman-116"/>
        <path d="M 43.296875 13.09375 
C 39.59375 8.40625 35.09375 6 28.40625 6 
C 19.90625 6 13.703125 12.90625 13.09375 21 
L 50.90625 21 
L 50.90625 23.5 
C 50.90625 39 41.90625 48 28.703125 48 
C 14.90625 48 4.703125 37.90625 4.703125 23.40625 
C 4.703125 9.796875 13.703125 -1.203125 28.40625 -1.203125 
C 37.09375 -1.203125 43.703125 1.40625 49.203125 8.5 
z
M 13.09375 27.59375 
C 14.09375 35.5 19.796875 40.796875 28.40625 40.796875 
C 37 40.796875 42.203125 35.5 42.5 27.59375 
z
" id="AvenirLTStd-Roman-101"/>
        <path d="M 0 -12.5 
L 50 -12.5 
L 50 -7.5 
L 0 -7.5 
z
" id="AvenirLTStd-Roman-95"/>
        <path d="M 25.5 0 
L 33.90625 0 
L 33.90625 30.5 
L 60.296875 70.796875 
L 50.203125 70.796875 
L 29.703125 38.796875 
L 9.796875 70.796875 
L -0.90625 70.796875 
L 25.5 30.5 
z
" id="AvenirLTStd-Roman-89"/>
        <path d="M 49.296875 64.296875 
C 44.09375 70.40625 37.40625 72.59375 29.5 72.59375 
C 17.09375 72.59375 5.40625 65.796875 5.40625 52.203125 
C 5.40625 40.40625 13 36 23 32.703125 
C 35.59375 28.5 41.5 27 41.5 18.296875 
C 41.5 10.203125 33.296875 6 26.09375 6 
C 20 6 14 8.703125 11 13.90625 
L 3.796875 8 
C 8.59375 0.90625 17.40625 -1.796875 25.59375 -1.796875 
C 38.40625 -1.796875 50.5 4.796875 50.5 18.90625 
C 50.5 32.796875 40.296875 36.40625 29.296875 39.90625 
C 18 43.5 14.40625 46.40625 14.40625 52.90625 
C 14.40625 61.296875 22.09375 64.796875 29.5 64.796875 
C 34.59375 64.796875 39.59375 62.796875 42.40625 58.296875 
z
" id="AvenirLTStd-Roman-83"/>
        <path d="M 41.703125 -1.796875 
C 63.203125 -1.796875 78.703125 14 78.703125 35.40625 
C 78.703125 56.796875 63.203125 72.59375 41.703125 72.59375 
C 20.203125 72.59375 4.703125 56.796875 4.703125 35.40625 
C 4.703125 14 20.203125 -1.796875 41.703125 -1.796875 
z
M 41.703125 6 
C 25.09375 6 13.703125 19.09375 13.703125 35.40625 
C 13.703125 51.703125 25.09375 64.796875 41.703125 64.796875 
C 58.296875 64.796875 69.703125 51.703125 69.703125 35.40625 
C 69.703125 19.09375 58.296875 6 41.703125 6 
z
" id="AvenirLTStd-Roman-79"/>
       </defs>
       <use xlink:href="#AvenirLTStd-Roman-67"/>
       <use x="70.399994" xlink:href="#AvenirLTStd-Roman-97"/>
       <use x="122.299988" xlink:href="#AvenirLTStd-Roman-110"/>
       <use x="177.899979" xlink:href="#AvenirLTStd-Roman-100"/>
       <use x="238.999969" xlink:href="#AvenirLTStd-Roman-105"/>
       <use x="262.999954" xlink:href="#AvenirLTStd-Roman-100"/>
       <use x="324.099945" xlink:href="#AvenirLTStd-Roman-97"/>
       <use x="375.999939" xlink:href="#AvenirLTStd-Roman-116"/>
       <use x="411.199936" xlink:href="#AvenirLTStd-Roman-101"/>
       <use x="466.799927" xlink:href="#AvenirLTStd-Roman-95"/>
       <use x="516.799911" xlink:href="#AvenirLTStd-Roman-89"/>
       <use x="576.199905" xlink:href="#AvenirLTStd-Roman-83"/>
       <use x="631.799896" xlink:href="#AvenirLTStd-Roman-79"/>
      </g>
     </g>
    </g>
    <g id="xtick_2">
     <g id="line2d_2">
      <g>
       <use style="stroke:#000000;stroke-width:0.8;" x="137.989375" xlink:href="#m995cd79165" y="224.64"/>
      </g>
     </g>
     <g id="text_2">
      <!-- YSO -->
      <g transform="translate(141.685156 259.416875)rotate(-90)scale(0.14 -0.14)">
       <use xlink:href="#AvenirLTStd-Roman-89"/>
       <use x="59.399994" xlink:href="#AvenirLTStd-Roman-83"/>
       <use x="114.999985" xlink:href="#AvenirLTStd-Roman-79"/>
      </g>
     </g>
    </g>
    <g id="xtick_3">
     <g id="line2d_3">
      <g>
       <use style="stroke:#000000;stroke-width:0.8;" x="204.949375" xlink:href="#m995cd79165" y="224.64"/>
      </g>
     </g>
     <g id="text_3">
      <!-- Orion_V* -->
      <g transform="translate(208.645156 289.475313)rotate(-90)scale(0.14 -0.14)">
       <defs>
        <path d="M 7.40625 0 
L 15.203125 0 
L 15.203125 22.796875 
C 15.203125 33.5 19.40625 40.203125 28.90625 40.203125 
C 30.296875 40.203125 31.796875 40 33.09375 39.59375 
L 33.59375 47.5 
C 32.5 47.90625 31.40625 48 30.40625 48 
C 22.703125 48 16.90625 43.703125 14.796875 39.09375 
L 14.59375 39.09375 
C 14.59375 41.703125 14.40625 44.296875 14.40625 46.796875 
L 7 46.796875 
C 7 43.703125 7.40625 40 7.40625 35.703125 
z
" id="AvenirLTStd-Roman-114"/>
        <path d="M 4.703125 23.40625 
C 4.703125 8.796875 15.296875 -1.203125 29.703125 -1.203125 
C 44.09375 -1.203125 54.703125 8.796875 54.703125 23.40625 
C 54.703125 38 44.09375 48 29.703125 48 
C 15.296875 48 4.703125 38 4.703125 23.40625 
z
M 13.09375 23.40625 
C 13.09375 33.203125 19.59375 40.796875 29.703125 40.796875 
C 39.796875 40.796875 46.296875 33.203125 46.296875 23.40625 
C 46.296875 13.59375 39.796875 6 29.703125 6 
C 19.59375 6 13.09375 13.59375 13.09375 23.40625 
z
" id="AvenirLTStd-Roman-111"/>
        <path d="M 26.203125 0 
L 34.296875 0 
L 62 70.796875 
L 53.09375 70.796875 
L 30.59375 12.59375 
L 30.40625 12.59375 
L 8.59375 70.796875 
L -0.90625 70.796875 
z
" id="AvenirLTStd-Roman-86"/>
        <path d="M 25.203125 70.796875 
L 19.203125 70.796875 
L 19.203125 55.90625 
L 5 60.703125 
L 3.09375 54.90625 
L 17.203125 50.09375 
L 8.5 38.203125 
L 13.5 34.40625 
L 22.203125 46.703125 
L 31.203125 34.40625 
L 36.09375 38.203125 
L 27.203125 50.09375 
L 41.296875 54.90625 
L 39.40625 60.703125 
L 25.203125 55.90625 
z
" id="AvenirLTStd-Roman-42"/>
       </defs>
       <use xlink:href="#AvenirLTStd-Roman-79"/>
       <use x="83.399994" xlink:href="#AvenirLTStd-Roman-114"/>
       <use x="118.599991" xlink:href="#AvenirLTStd-Roman-105"/>
       <use x="142.599976" xlink:href="#AvenirLTStd-Roman-111"/>
       <use x="201.999969" xlink:href="#AvenirLTStd-Roman-110"/>
       <use x="257.59996" xlink:href="#AvenirLTStd-Roman-95"/>
       <use x="307.599945" xlink:href="#AvenirLTStd-Roman-86"/>
       <use x="368.699936" xlink:href="#AvenirLTStd-Roman-42"/>
      </g>
     </g>
    </g>
    <g id="xtick_4">
     <g id="line2d_4">
      <g>
       <use style="stroke:#000000;stroke-width:0.8;" x="271.909375" xlink:href="#m995cd79165" y="224.64"/>
      </g>
     </g>
     <g id="text_4">
      <!-- TTau* -->
      <g transform="translate(275.605156 268.980625)rotate(-90)scale(0.14 -0.14)">
       <defs>
        <path d="M 56.296875 70.796875 
L 1.09375 70.796875 
L 1.09375 63 
L 24.5 63 
L 24.5 0 
L 32.90625 0 
L 32.90625 63 
L 56.296875 63 
z
" id="AvenirLTStd-Roman-84"/>
        <path d="M 48.203125 46.796875 
L 40.40625 46.796875 
L 40.40625 24 
C 40.40625 13.296875 36 6 25.90625 6 
C 18.59375 6 15.203125 10.90625 15.203125 18.703125 
L 15.203125 46.796875 
L 7.40625 46.796875 
L 7.40625 17.90625 
C 7.40625 6.59375 12.90625 -1.203125 25.203125 -1.203125 
C 32.90625 -1.203125 38.703125 3.09375 40.796875 7.703125 
L 41 7.703125 
C 41 5.09375 41.203125 2.5 41.203125 0 
L 48.59375 0 
C 48.59375 3.09375 48.203125 6.796875 48.203125 11.09375 
z
" id="AvenirLTStd-Roman-117"/>
       </defs>
       <use xlink:href="#AvenirLTStd-Roman-84"/>
       <use x="57.399994" xlink:href="#AvenirLTStd-Roman-84"/>
       <use x="114.799988" xlink:href="#AvenirLTStd-Roman-97"/>
       <use x="166.699982" xlink:href="#AvenirLTStd-Roman-117"/>
       <use x="222.299973" xlink:href="#AvenirLTStd-Roman-42"/>
      </g>
     </g>
    </g>
    <g id="xtick_5">
     <g id="line2d_5">
      <g>
       <use style="stroke:#000000;stroke-width:0.8;" x="338.869375" xlink:href="#m995cd79165" y="224.64"/>
      </g>
     </g>
     <g id="text_5">
      <!-- BYDra -->
      <g transform="translate(342.565156 271.345313)rotate(-90)scale(0.14 -0.14)">
       <defs>
        <path d="M 8.796875 0 
L 29.90625 0 
C 43 0 57.5 4.203125 57.5 19.796875 
C 57.5 29.09375 50.59375 36.40625 41.5 37.203125 
L 41.5 37.40625 
C 49.09375 39.703125 53.90625 45.203125 53.90625 53.40625 
C 53.90625 66.40625 42.09375 70.796875 30.40625 70.796875 
L 8.796875 70.796875 
z
M 17.203125 63 
L 29.703125 63 
C 37.296875 63 44.90625 61 44.90625 52.296875 
C 44.90625 42.5 36.703125 40.796875 28.796875 40.796875 
L 17.203125 40.796875 
z
M 17.203125 33 
L 31.59375 33 
C 40.09375 33 48.5 30 48.5 20.09375 
C 48.5 11.09375 39.59375 7.796875 31.40625 7.796875 
L 17.203125 7.796875 
z
" id="AvenirLTStd-Roman-66"/>
        <path d="M 7.5 0 
L 34.703125 0 
C 48.59375 0 69.40625 9.296875 69.40625 35.40625 
C 69.40625 61.5 48.59375 70.796875 34.703125 70.796875 
L 7.5 70.796875 
z
M 15.90625 63 
L 31.90625 63 
C 48.09375 63 60.40625 54.796875 60.40625 35.40625 
C 60.40625 16 48.09375 7.796875 31.90625 7.796875 
L 15.90625 7.796875 
z
" id="AvenirLTStd-Roman-68"/>
       </defs>
       <use xlink:href="#AvenirLTStd-Roman-66"/>
       <use x="62.999985" xlink:href="#AvenirLTStd-Roman-89"/>
       <use x="122.399979" xlink:href="#AvenirLTStd-Roman-68"/>
       <use x="196.499969" xlink:href="#AvenirLTStd-Roman-114"/>
       <use x="231.699966" xlink:href="#AvenirLTStd-Roman-97"/>
      </g>
     </g>
    </g>
   </g>
   <g id="matplotlib.axis_2">
    <g id="ytick_1">
     <g id="line2d_6">
      <defs>
       <path d="M 0 0 
L -3.5 0 
" id="m585da595b8" style="stroke:#000000;stroke-width:0.8;"/>
      </defs>
      <g>
       <use style="stroke:#000000;stroke-width:0.8;" x="37.549375" xlink:href="#m585da595b8" y="224.64"/>
      </g>
     </g>
     <g id="text_6">
      <!-- 0 -->
      <g transform="translate(22.76625 229.931563)scale(0.14 -0.14)">
       <defs>
        <path d="M 3.796875 35.40625 
C 3.796875 19.296875 8.296875 -1.203125 27.796875 -1.203125 
C 47.296875 -1.203125 51.796875 19.296875 51.796875 35.40625 
C 51.796875 51.5 47.296875 72 27.796875 72 
C 8.296875 72 3.796875 51.5 3.796875 35.40625 
z
M 12.203125 35.40625 
C 12.203125 45.796875 13.796875 64.796875 27.796875 64.796875 
C 41.796875 64.796875 43.40625 45.796875 43.40625 35.40625 
C 43.40625 25 41.796875 6 27.796875 6 
C 13.796875 6 12.203125 25 12.203125 35.40625 
z
" id="AvenirLTStd-Roman-48"/>
       </defs>
       <use xlink:href="#AvenirLTStd-Roman-48"/>
      </g>
     </g>
    </g>
    <g id="ytick_2">
     <g id="line2d_7">
      <g>
       <use style="stroke:#000000;stroke-width:0.8;" x="37.549375" xlink:href="#m585da595b8" y="184.034958"/>
      </g>
     </g>
     <g id="text_7">
      <!-- 50 -->
      <g transform="translate(14.983125 189.32652)scale(0.14 -0.14)">
       <defs>
        <path d="M 47.40625 70.796875 
L 10.296875 70.796875 
L 9.59375 34 
C 13.796875 36.5 19.203125 38.40625 24 38.40625 
C 33.90625 38.40625 41.5 32.703125 41.5 22.296875 
C 41.5 12.5 34.796875 6 26.296875 6 
C 20.296875 6 15.5 9.59375 13.09375 14.90625 
L 4.703125 11.703125 
C 8.5 3.90625 14.90625 -1.203125 25.59375 -1.203125 
C 39.40625 -1.203125 49.90625 8.203125 49.90625 22.296875 
C 49.90625 35.59375 40.90625 45.59375 27.296875 45.59375 
C 24.40625 45.59375 20.90625 45.203125 18.203125 43.90625 
L 18.5 63 
L 47.40625 63 
z
" id="AvenirLTStd-Roman-53"/>
       </defs>
       <use xlink:href="#AvenirLTStd-Roman-53"/>
       <use x="55.599991" xlink:href="#AvenirLTStd-Roman-48"/>
      </g>
     </g>
    </g>
    <g id="ytick_3">
     <g id="line2d_8">
      <g>
       <use style="stroke:#000000;stroke-width:0.8;" x="37.549375" xlink:href="#m585da595b8" y="143.429916"/>
      </g>
     </g>
     <g id="text_8">
      <!-- 100 -->
      <g transform="translate(7.2 148.721478)scale(0.14 -0.14)">
       <defs>
        <path d="M 36 70.796875 
L 28.703125 70.796875 
L 9.703125 55.40625 
L 14.703125 49.296875 
L 27.40625 60 
L 27.59375 60 
L 27.59375 0 
L 36 0 
z
" id="AvenirLTStd-Roman-49"/>
       </defs>
       <use xlink:href="#AvenirLTStd-Roman-49"/>
       <use x="55.599991" xlink:href="#AvenirLTStd-Roman-48"/>
       <use x="111.199982" xlink:href="#AvenirLTStd-Roman-48"/>
      </g>
     </g>
    </g>
    <g id="ytick_4">
     <g id="line2d_9">
      <g>
       <use style="stroke:#000000;stroke-width:0.8;" x="37.549375" xlink:href="#m585da595b8" y="102.824874"/>
      </g>
     </g>
     <g id="text_9">
      <!-- 150 -->
      <g transform="translate(7.2 108.116436)scale(0.14 -0.14)">
       <use xlink:href="#AvenirLTStd-Roman-49"/>
       <use x="55.599991" xlink:href="#AvenirLTStd-Roman-53"/>
       <use x="111.199982" xlink:href="#AvenirLTStd-Roman-48"/>
      </g>
     </g>
    </g>
    <g id="ytick_5">
     <g id="line2d_10">
      <g>
       <use style="stroke:#000000;stroke-width:0.8;" x="37.549375" xlink:href="#m585da595b8" y="62.219832"/>
      </g>
     </g>
     <g id="text_10">
      <!-- 200 -->
      <g transform="translate(7.2 67.511394)scale(0.14 -0.14)">
       <defs>
        <path d="M 5 0 
L 50.59375 0 
L 50.59375 7.796875 
L 14.5 7.796875 
L 14.5 8 
L 36.296875 28.5 
C 43.40625 35.203125 50.09375 41.5 50.09375 52.796875 
C 50.09375 65.40625 40.203125 72 28.5 72 
C 17.09375 72 8.203125 65.90625 6.296875 54.296875 
L 15.40625 53.5 
C 16.703125 60.296875 21.703125 64.796875 28.796875 64.796875 
C 35.90625 64.796875 41.703125 60.203125 41.703125 52.796875 
C 41.703125 45.90625 38.40625 42.09375 31.703125 35.59375 
L 5 9.59375 
z
" id="AvenirLTStd-Roman-50"/>
       </defs>
       <use xlink:href="#AvenirLTStd-Roman-50"/>
       <use x="55.599991" xlink:href="#AvenirLTStd-Roman-48"/>
       <use x="111.199982" xlink:href="#AvenirLTStd-Roman-48"/>
      </g>
     </g>
    </g>
    <g id="ytick_6">
     <g id="line2d_11">
      <g>
       <use style="stroke:#000000;stroke-width:0.8;" x="37.549375" xlink:href="#m585da595b8" y="21.61479"/>
      </g>
     </g>
     <g id="text_11">
      <!-- 250 -->
      <g transform="translate(7.2 26.906352)scale(0.14 -0.14)">
       <use xlink:href="#AvenirLTStd-Roman-50"/>
       <use x="55.599991" xlink:href="#AvenirLTStd-Roman-53"/>
       <use x="111.199982" xlink:href="#AvenirLTStd-Roman-48"/>
      </g>
     </g>
    </g>
   </g>
   <g id="patch_8">
    <path d="M 37.549375 224.64 
L 37.549375 7.2 
" style="fill:none;stroke:#000000;stroke-linecap:square;stroke-linejoin:miter;stroke-width:2;"/>
   </g>
   <g id="patch_9">
    <path d="M 372.349375 224.64 
L 372.349375 7.2 
" style="fill:none;stroke:#000000;stroke-linecap:square;stroke-linejoin:miter;stroke-width:2;"/>
   </g>
   <g id="patch_10">
    <path d="M 37.549375 224.64 
L 372.349375 224.64 
" style="fill:none;stroke:#000000;stroke-linecap:square;stroke-linejoin:miter;stroke-width:2;"/>
   </g>
   <g id="patch_11">
    <path d="M 37.549375 7.2 
L 372.349375 7.2 
" style="fill:none;stroke:#000000;stroke-linecap:square;stroke-linejoin:miter;stroke-width:2;"/>
   </g>
  </g>
 </g>
 <defs>
  <clipPath id="p51e29baceb">
   <rect height="217.44" width="334.8" x="37.549375" y="7.2"/>
  </clipPath>
 </defs>
</svg>
