<?xml version="1.0" encoding="utf-8" standalone="no"?>
<!DOCTYPE svg PUBLIC "-//W3C//DTD SVG 1.1//EN"
  "http://www.w3.org/Graphics/SVG/1.1/DTD/svg11.dtd">
<!-- Created with matplotlib (https://matplotlib.org/) -->
<svg height="361.419687pt" version="1.1" viewBox="0 0 401.607187 361.419687" width="401.607187pt" xmlns="http://www.w3.org/2000/svg" xmlns:xlink="http://www.w3.org/1999/xlink">
 <metadata>
  <rdf:RDF xmlns:cc="http://creativecommons.org/ns#" xmlns:dc="http://purl.org/dc/elements/1.1/" xmlns:rdf="http://www.w3.org/1999/02/22-rdf-syntax-ns#">
   <cc:Work>
    <dc:type rdf:resource="http://purl.org/dc/dcmitype/StillImage"/>
    <dc:date>2022-03-10T04:39:12.335090</dc:date>
    <dc:format>image/svg+xml</dc:format>
    <dc:creator>
     <cc:Agent>
      <dc:title>Matplotlib v3.3.4, https://matplotlib.org/</dc:title>
     </cc:Agent>
    </dc:creator>
   </cc:Work>
  </rdf:RDF>
 </metadata>
 <defs>
  <style type="text/css">*{stroke-linecap:butt;stroke-linejoin:round;}</style>
 </defs>
 <g id="figure_1">
  <g id="patch_1">
   <path d="M 0 361.419687 
L 401.607187 361.419687 
L 401.607187 0 
L 0 0 
z
" style="fill:none;"/>
  </g>
  <g id="axes_1">
   <g id="patch_2">
    <path d="M 59.607188 298.164062 
L 394.407188 298.164062 
L 394.407188 80.724062 
L 59.607188 80.724062 
z
" style="fill:#ffffff;"/>
   </g>
   <g id="PolyCollection_1">
    <defs>
     <path d="M 74.825369 -63.434765 
L 74.825369 -63.255625 
L 84.970824 -63.255625 
L 84.970824 -63.255625 
L 95.116278 -63.255625 
L 95.116278 -63.255625 
L 105.261733 -63.255625 
L 105.261733 -63.255625 
L 115.407188 -63.255625 
L 115.407188 -63.255625 
L 125.552642 -63.255625 
L 125.552642 -63.255625 
L 135.698097 -63.255625 
L 135.698097 -63.255625 
L 145.843551 -63.255625 
L 145.843551 -63.255625 
L 155.989006 -63.255625 
L 155.989006 -63.255625 
L 166.13446 -63.255625 
L 166.13446 -63.255625 
L 176.279915 -63.255625 
L 176.279915 -63.255625 
L 186.425369 -63.255625 
L 186.425369 -63.255625 
L 196.570824 -63.255625 
L 196.570824 -63.255625 
L 206.716278 -63.255625 
L 206.716278 -63.255625 
L 216.861733 -63.255625 
L 216.861733 -63.255625 
L 227.007188 -63.255625 
L 227.007188 -63.255625 
L 237.152642 -63.255625 
L 237.152642 -63.255625 
L 247.298097 -63.255625 
L 247.298097 -63.255625 
L 257.443551 -63.255625 
L 257.443551 -63.255625 
L 267.589006 -63.255625 
L 267.589006 -63.255625 
L 277.73446 -63.255625 
L 277.73446 -63.255625 
L 287.879915 -63.255625 
L 287.879915 -63.255625 
L 298.025369 -63.255625 
L 298.025369 -63.255625 
L 308.170824 -63.255625 
L 308.170824 -63.255625 
L 318.316278 -63.255625 
L 318.316278 -63.255625 
L 328.461733 -63.255625 
L 328.461733 -63.255625 
L 338.607188 -63.255625 
L 338.607188 -63.255625 
L 348.752642 -63.255625 
L 348.752642 -63.255625 
L 358.898097 -63.255625 
L 358.898097 -63.255625 
L 369.043551 -63.255625 
L 369.043551 -63.255625 
L 379.189006 -63.255625 
L 379.189006 -63.255625 
L 379.189006 -94.605106 
L 379.189006 -94.605106 
L 379.189006 -94.605106 
L 369.043551 -94.605106 
L 369.043551 -76.870257 
L 358.898097 -76.870257 
L 358.898097 -74.899718 
L 348.752642 -74.899718 
L 348.752642 -69.704661 
L 338.607188 -69.704661 
L 338.607188 -67.913262 
L 328.461733 -67.913262 
L 328.461733 -67.913262 
L 318.316278 -67.913262 
L 318.316278 -69.167241 
L 308.170824 -69.167241 
L 308.170824 -67.554982 
L 298.025369 -67.554982 
L 298.025369 -65.405304 
L 287.879915 -65.405304 
L 287.879915 -66.301003 
L 277.73446 -66.301003 
L 277.73446 -66.480143 
L 267.589006 -66.480143 
L 267.589006 -66.480143 
L 257.443551 -66.480143 
L 257.443551 -65.405304 
L 247.298097 -65.405304 
L 247.298097 -67.196703 
L 237.152642 -67.196703 
L 237.152642 -69.525521 
L 227.007188 -69.525521 
L 227.007188 -67.375842 
L 216.861733 -67.375842 
L 216.861733 -68.271542 
L 206.716278 -68.271542 
L 206.716278 -70.95864 
L 196.570824 -70.95864 
L 196.570824 -67.017563 
L 186.425369 -67.017563 
L 186.425369 -68.988102 
L 176.279915 -68.988102 
L 176.279915 -67.913262 
L 166.13446 -67.913262 
L 166.13446 -67.375842 
L 155.989006 -67.375842 
L 155.989006 -65.942723 
L 145.843551 -65.942723 
L 145.843551 -65.405304 
L 135.698097 -65.405304 
L 135.698097 -66.121863 
L 125.552642 -66.121863 
L 125.552642 -64.151324 
L 115.407188 -64.151324 
L 115.407188 -65.047024 
L 105.261733 -65.047024 
L 105.261733 -65.763583 
L 95.116278 -65.763583 
L 95.116278 -65.942723 
L 84.970824 -65.942723 
L 84.970824 -63.434765 
L 74.825369 -63.434765 
z
" id="mcb5cf31163" style="stroke:#999999;"/>
    </defs>
    <g clip-path="url(#pb5191a11c4)">
     <use style="fill:#999999;fill-opacity:0.25;stroke:#999999;" x="0" xlink:href="#mcb5cf31163" y="361.419687"/>
    </g>
   </g>
   <g id="PolyCollection_2">
    <defs>
     <path d="M 74.825369 -86.364671 
L 74.825369 -63.255625 
L 84.970824 -63.255625 
L 84.970824 -63.255625 
L 95.116278 -63.255625 
L 95.116278 -63.255625 
L 105.261733 -63.255625 
L 105.261733 -63.255625 
L 115.407188 -63.255625 
L 115.407188 -63.255625 
L 125.552642 -63.255625 
L 125.552642 -63.255625 
L 135.698097 -63.255625 
L 135.698097 -63.255625 
L 145.843551 -63.255625 
L 145.843551 -63.255625 
L 155.989006 -63.255625 
L 155.989006 -63.255625 
L 166.13446 -63.255625 
L 166.13446 -63.255625 
L 176.279915 -63.255625 
L 176.279915 -63.255625 
L 186.425369 -63.255625 
L 186.425369 -63.255625 
L 196.570824 -63.255625 
L 196.570824 -63.255625 
L 206.716278 -63.255625 
L 206.716278 -63.255625 
L 216.861733 -63.255625 
L 216.861733 -63.255625 
L 227.007188 -63.255625 
L 227.007188 -63.255625 
L 237.152642 -63.255625 
L 237.152642 -63.255625 
L 247.298097 -63.255625 
L 247.298097 -63.255625 
L 257.443551 -63.255625 
L 257.443551 -63.255625 
L 267.589006 -63.255625 
L 267.589006 -63.255625 
L 277.73446 -63.255625 
L 277.73446 -63.255625 
L 287.879915 -63.255625 
L 287.879915 -63.255625 
L 298.025369 -63.255625 
L 298.025369 -63.255625 
L 308.170824 -63.255625 
L 308.170824 -63.255625 
L 318.316278 -63.255625 
L 318.316278 -63.255625 
L 328.461733 -63.255625 
L 328.461733 -63.255625 
L 338.607188 -63.255625 
L 338.607188 -63.255625 
L 348.752642 -63.255625 
L 348.752642 -63.255625 
L 358.898097 -63.255625 
L 358.898097 -63.255625 
L 369.043551 -63.255625 
L 369.043551 -63.255625 
L 379.189006 -63.255625 
L 379.189006 -63.255625 
L 379.189006 -65.226164 
L 379.189006 -65.226164 
L 379.189006 -65.226164 
L 369.043551 -65.226164 
L 369.043551 -70.95864 
L 358.898097 -70.95864 
L 358.898097 -76.332837 
L 348.752642 -76.332837 
L 348.752642 -73.824879 
L 338.607188 -73.824879 
L 338.607188 -69.525521 
L 328.461733 -69.525521 
L 328.461733 -66.480143 
L 318.316278 -66.480143 
L 318.316278 -67.554982 
L 308.170824 -67.554982 
L 308.170824 -67.017563 
L 298.025369 -67.017563 
L 298.025369 -65.942723 
L 287.879915 -65.942723 
L 287.879915 -65.763583 
L 277.73446 -65.763583 
L 277.73446 -66.301003 
L 267.589006 -66.301003 
L 267.589006 -66.480143 
L 257.443551 -66.480143 
L 257.443551 -69.883801 
L 247.298097 -69.883801 
L 247.298097 -67.017563 
L 237.152642 -67.017563 
L 237.152642 -68.629822 
L 227.007188 -68.629822 
L 227.007188 -71.49606 
L 216.861733 -71.49606 
L 216.861733 -71.85434 
L 206.716278 -71.85434 
L 206.716278 -72.750039 
L 196.570824 -72.750039 
L 196.570824 -75.616277 
L 186.425369 -75.616277 
L 186.425369 -72.391759 
L 176.279915 -72.391759 
L 176.279915 -76.870257 
L 166.13446 -76.870257 
L 166.13446 -72.929179 
L 155.989006 -72.929179 
L 155.989006 -70.95864 
L 145.843551 -70.95864 
L 145.843551 -73.645739 
L 135.698097 -73.645739 
L 135.698097 -78.482516 
L 125.552642 -78.482516 
L 125.552642 -82.244453 
L 115.407188 -82.244453 
L 115.407188 -99.083603 
L 105.261733 -99.083603 
L 105.261733 -111.981675 
L 95.116278 -111.981675 
L 95.116278 -128.283406 
L 84.970824 -128.283406 
L 84.970824 -86.364671 
L 74.825369 -86.364671 
z
" id="m10a2917a5d" style="stroke:#f781bf;"/>
    </defs>
    <g clip-path="url(#pb5191a11c4)">
     <use style="fill:#f781bf;fill-opacity:0.25;stroke:#f781bf;" x="0" xlink:href="#m10a2917a5d" y="361.419687"/>
    </g>
   </g>
   <g id="PolyCollection_3">
    <defs>
     <path d="M 74.825369 -63.255625 
L 74.825369 -63.255625 
L 84.970824 -63.255625 
L 84.970824 -63.255625 
L 95.116278 -63.255625 
L 95.116278 -63.255625 
L 105.261733 -63.255625 
L 105.261733 -63.255625 
L 115.407188 -63.255625 
L 115.407188 -63.255625 
L 125.552642 -63.255625 
L 125.552642 -63.255625 
L 135.698097 -63.255625 
L 135.698097 -63.255625 
L 145.843551 -63.255625 
L 145.843551 -63.255625 
L 155.989006 -63.255625 
L 155.989006 -63.255625 
L 166.13446 -63.255625 
L 166.13446 -63.255625 
L 176.279915 -63.255625 
L 176.279915 -63.255625 
L 186.425369 -63.255625 
L 186.425369 -63.255625 
L 196.570824 -63.255625 
L 196.570824 -63.255625 
L 206.716278 -63.255625 
L 206.716278 -63.255625 
L 216.861733 -63.255625 
L 216.861733 -63.255625 
L 227.007188 -63.255625 
L 227.007188 -63.255625 
L 237.152642 -63.255625 
L 237.152642 -63.255625 
L 247.298097 -63.255625 
L 247.298097 -63.255625 
L 257.443551 -63.255625 
L 257.443551 -63.255625 
L 267.589006 -63.255625 
L 267.589006 -63.255625 
L 277.73446 -63.255625 
L 277.73446 -63.255625 
L 287.879915 -63.255625 
L 287.879915 -63.255625 
L 298.025369 -63.255625 
L 298.025369 -63.255625 
L 308.170824 -63.255625 
L 308.170824 -63.255625 
L 318.316278 -63.255625 
L 318.316278 -63.255625 
L 328.461733 -63.255625 
L 328.461733 -63.255625 
L 338.607188 -63.255625 
L 338.607188 -63.255625 
L 348.752642 -63.255625 
L 348.752642 -63.255625 
L 358.898097 -63.255625 
L 358.898097 -63.255625 
L 369.043551 -63.255625 
L 369.043551 -63.255625 
L 379.189006 -63.255625 
L 379.189006 -63.255625 
L 379.189006 -87.97693 
L 379.189006 -87.97693 
L 379.189006 -87.97693 
L 369.043551 -87.97693 
L 369.043551 -84.394132 
L 358.898097 -84.394132 
L 358.898097 -91.918008 
L 348.752642 -91.918008 
L 348.752642 -92.097147 
L 338.607188 -92.097147 
L 338.607188 -92.813707 
L 328.461733 -92.813707 
L 328.461733 -87.97693 
L 318.316278 -87.97693 
L 318.316278 -86.364671 
L 308.170824 -86.364671 
L 308.170824 -76.691117 
L 298.025369 -76.691117 
L 298.025369 -73.645739 
L 287.879915 -73.645739 
L 287.879915 -71.49606 
L 277.73446 -71.49606 
L 277.73446 -74.183158 
L 267.589006 -74.183158 
L 267.589006 -78.303376 
L 257.443551 -78.303376 
L 257.443551 -81.348754 
L 247.298097 -81.348754 
L 247.298097 -74.362298 
L 237.152642 -74.362298 
L 237.152642 -76.870257 
L 227.007188 -76.870257 
L 227.007188 -72.21262 
L 216.861733 -72.21262 
L 216.861733 -72.570899 
L 206.716278 -72.570899 
L 206.716278 -71.13778 
L 196.570824 -71.13778 
L 196.570824 -72.03348 
L 186.425369 -72.03348 
L 186.425369 -68.092402 
L 176.279915 -68.092402 
L 176.279915 -66.659283 
L 166.13446 -66.659283 
L 166.13446 -65.047024 
L 155.989006 -65.047024 
L 155.989006 -63.613905 
L 145.843551 -63.613905 
L 145.843551 -63.434765 
L 135.698097 -63.434765 
L 135.698097 -63.255625 
L 125.552642 -63.255625 
L 125.552642 -63.255625 
L 115.407188 -63.255625 
L 115.407188 -63.255625 
L 105.261733 -63.255625 
L 105.261733 -63.255625 
L 95.116278 -63.255625 
L 95.116278 -63.255625 
L 84.970824 -63.255625 
L 84.970824 -63.255625 
L 74.825369 -63.255625 
z
" id="m885b6e8443" style="stroke:#ffff33;"/>
    </defs>
    <g clip-path="url(#pb5191a11c4)">
     <use style="fill:#ffff33;fill-opacity:0.25;stroke:#ffff33;" x="0" xlink:href="#m885b6e8443" y="361.419687"/>
    </g>
   </g>
   <g id="PolyCollection_4">
    <defs>
     <path d="M 74.825369 -63.255625 
L 74.825369 -63.255625 
L 84.970824 -63.255625 
L 84.970824 -63.255625 
L 95.116278 -63.255625 
L 95.116278 -63.255625 
L 105.261733 -63.255625 
L 105.261733 -63.255625 
L 115.407188 -63.255625 
L 115.407188 -63.255625 
L 125.552642 -63.255625 
L 125.552642 -63.255625 
L 135.698097 -63.255625 
L 135.698097 -63.255625 
L 145.843551 -63.255625 
L 145.843551 -63.255625 
L 155.989006 -63.255625 
L 155.989006 -63.255625 
L 166.13446 -63.255625 
L 166.13446 -63.255625 
L 176.279915 -63.255625 
L 176.279915 -63.255625 
L 186.425369 -63.255625 
L 186.425369 -63.255625 
L 196.570824 -63.255625 
L 196.570824 -63.255625 
L 206.716278 -63.255625 
L 206.716278 -63.255625 
L 216.861733 -63.255625 
L 216.861733 -63.255625 
L 227.007188 -63.255625 
L 227.007188 -63.255625 
L 237.152642 -63.255625 
L 237.152642 -63.255625 
L 247.298097 -63.255625 
L 247.298097 -63.255625 
L 257.443551 -63.255625 
L 257.443551 -63.255625 
L 267.589006 -63.255625 
L 267.589006 -63.255625 
L 277.73446 -63.255625 
L 277.73446 -63.255625 
L 287.879915 -63.255625 
L 287.879915 -63.255625 
L 298.025369 -63.255625 
L 298.025369 -63.255625 
L 308.170824 -63.255625 
L 308.170824 -63.255625 
L 318.316278 -63.255625 
L 318.316278 -63.255625 
L 328.461733 -63.255625 
L 328.461733 -63.255625 
L 338.607188 -63.255625 
L 338.607188 -63.255625 
L 348.752642 -63.255625 
L 348.752642 -63.255625 
L 358.898097 -63.255625 
L 358.898097 -63.255625 
L 369.043551 -63.255625 
L 369.043551 -63.255625 
L 379.189006 -63.255625 
L 379.189006 -63.255625 
L 379.189006 -63.255625 
L 379.189006 -63.255625 
L 379.189006 -63.255625 
L 369.043551 -63.255625 
L 369.043551 -63.255625 
L 358.898097 -63.255625 
L 358.898097 -63.434765 
L 348.752642 -63.434765 
L 348.752642 -65.584444 
L 338.607188 -65.584444 
L 338.607188 -74.004018 
L 328.461733 -74.004018 
L 328.461733 -80.094775 
L 318.316278 -80.094775 
L 318.316278 -78.482516 
L 308.170824 -78.482516 
L 308.170824 -78.124236 
L 298.025369 -78.124236 
L 298.025369 -84.752412 
L 287.879915 -84.752412 
L 287.879915 -78.840796 
L 277.73446 -78.840796 
L 277.73446 -81.707034 
L 267.589006 -81.707034 
L 267.589006 -91.559728 
L 257.443551 -91.559728 
L 257.443551 -89.589189 
L 247.298097 -89.589189 
L 247.298097 -96.217365 
L 237.152642 -96.217365 
L 237.152642 -112.877375 
L 227.007188 -112.877375 
L 227.007188 -109.652857 
L 216.861733 -109.652857 
L 216.861733 -110.190277 
L 206.716278 -110.190277 
L 206.716278 -128.104266 
L 196.570824 -128.104266 
L 196.570824 -125.058887 
L 186.425369 -125.058887 
L 186.425369 -127.566846 
L 176.279915 -127.566846 
L 176.279915 -113.773074 
L 166.13446 -113.773074 
L 166.13446 -99.979303 
L 155.989006 -99.979303 
L 155.989006 -93.530267 
L 145.843551 -93.530267 
L 145.843551 -87.26037 
L 135.698097 -87.26037 
L 135.698097 -85.289832 
L 125.552642 -85.289832 
L 125.552642 -81.169614 
L 115.407188 -81.169614 
L 115.407188 -66.121863 
L 105.261733 -66.121863 
L 105.261733 -63.255625 
L 95.116278 -63.255625 
L 95.116278 -63.255625 
L 84.970824 -63.255625 
L 84.970824 -63.255625 
L 74.825369 -63.255625 
z
" id="m69d1c50238" style="stroke:#984ea3;"/>
    </defs>
    <g clip-path="url(#pb5191a11c4)">
     <use style="fill:#984ea3;fill-opacity:0.25;stroke:#984ea3;" x="0" xlink:href="#m69d1c50238" y="361.419687"/>
    </g>
   </g>
   <g id="PolyCollection_5">
    <defs>
     <path d="M 74.825369 -63.255625 
L 74.825369 -63.255625 
L 84.970824 -63.255625 
L 84.970824 -63.255625 
L 95.116278 -63.255625 
L 95.116278 -63.255625 
L 105.261733 -63.255625 
L 105.261733 -63.255625 
L 115.407188 -63.255625 
L 115.407188 -63.255625 
L 125.552642 -63.255625 
L 125.552642 -63.255625 
L 135.698097 -63.255625 
L 135.698097 -63.255625 
L 145.843551 -63.255625 
L 145.843551 -63.255625 
L 155.989006 -63.255625 
L 155.989006 -63.255625 
L 166.13446 -63.255625 
L 166.13446 -63.255625 
L 176.279915 -63.255625 
L 176.279915 -63.255625 
L 186.425369 -63.255625 
L 186.425369 -63.255625 
L 196.570824 -63.255625 
L 196.570824 -63.255625 
L 206.716278 -63.255625 
L 206.716278 -63.255625 
L 216.861733 -63.255625 
L 216.861733 -63.255625 
L 227.007188 -63.255625 
L 227.007188 -63.255625 
L 237.152642 -63.255625 
L 237.152642 -63.255625 
L 247.298097 -63.255625 
L 247.298097 -63.255625 
L 257.443551 -63.255625 
L 257.443551 -63.255625 
L 267.589006 -63.255625 
L 267.589006 -63.255625 
L 277.73446 -63.255625 
L 277.73446 -63.255625 
L 287.879915 -63.255625 
L 287.879915 -63.255625 
L 298.025369 -63.255625 
L 298.025369 -63.255625 
L 308.170824 -63.255625 
L 308.170824 -63.255625 
L 318.316278 -63.255625 
L 318.316278 -63.255625 
L 328.461733 -63.255625 
L 328.461733 -63.255625 
L 338.607188 -63.255625 
L 338.607188 -63.255625 
L 348.752642 -63.255625 
L 348.752642 -63.255625 
L 358.898097 -63.255625 
L 358.898097 -63.255625 
L 369.043551 -63.255625 
L 369.043551 -63.255625 
L 379.189006 -63.255625 
L 379.189006 -63.255625 
L 379.189006 -63.255625 
L 379.189006 -63.255625 
L 379.189006 -63.255625 
L 369.043551 -63.255625 
L 369.043551 -63.255625 
L 358.898097 -63.255625 
L 358.898097 -63.255625 
L 348.752642 -63.255625 
L 348.752642 -64.151324 
L 338.607188 -64.151324 
L 338.607188 -66.480143 
L 328.461733 -66.480143 
L 328.461733 -75.795417 
L 318.316278 -75.795417 
L 318.316278 -88.33521 
L 308.170824 -88.33521 
L 308.170824 -109.831997 
L 298.025369 -109.831997 
L 298.025369 -118.072432 
L 287.879915 -118.072432 
L 287.879915 -126.850286 
L 277.73446 -126.850286 
L 277.73446 -131.866203 
L 267.589006 -131.866203 
L 267.589006 -135.628141 
L 257.443551 -135.628141 
L 257.443551 -168.589881 
L 247.298097 -168.589881 
L 247.298097 -179.696554 
L 237.152642 -179.696554 
L 237.152642 -192.952906 
L 227.007188 -192.952906 
L 227.007188 -199.222802 
L 216.861733 -199.222802 
L 216.861733 -240.424977 
L 206.716278 -240.424977 
L 206.716278 -254.218749 
L 196.570824 -254.218749 
L 196.570824 -262.280044 
L 186.425369 -262.280044 
L 186.425369 -270.341339 
L 176.279915 -270.341339 
L 176.279915 -210.508616 
L 166.13446 -210.508616 
L 166.13446 -172.889238 
L 155.989006 -172.889238 
L 155.989006 -138.1361 
L 145.843551 -138.1361 
L 145.843551 -130.612224 
L 135.698097 -130.612224 
L 135.698097 -112.877375 
L 125.552642 -112.877375 
L 125.552642 -101.591562 
L 115.407188 -101.591562 
L 115.407188 -101.770702 
L 105.261733 -101.770702 
L 105.261733 -96.575645 
L 95.116278 -96.575645 
L 95.116278 -72.21262 
L 84.970824 -72.21262 
L 84.970824 -63.255625 
L 74.825369 -63.255625 
z
" id="md8e10441ef" style="stroke:#377eb8;"/>
    </defs>
    <g clip-path="url(#pb5191a11c4)">
     <use style="fill:#377eb8;fill-opacity:0.25;stroke:#377eb8;" x="0" xlink:href="#md8e10441ef" y="361.419687"/>
    </g>
   </g>
   <g id="PolyCollection_6">
    <defs>
     <path d="M 74.825369 -63.613905 
L 74.825369 -63.255625 
L 84.970824 -63.255625 
L 84.970824 -63.255625 
L 95.116278 -63.255625 
L 95.116278 -63.255625 
L 105.261733 -63.255625 
L 105.261733 -63.255625 
L 115.407188 -63.255625 
L 115.407188 -63.255625 
L 125.552642 -63.255625 
L 125.552642 -63.255625 
L 135.698097 -63.255625 
L 135.698097 -63.255625 
L 145.843551 -63.255625 
L 145.843551 -63.255625 
L 155.989006 -63.255625 
L 155.989006 -63.255625 
L 166.13446 -63.255625 
L 166.13446 -63.255625 
L 176.279915 -63.255625 
L 176.279915 -63.255625 
L 186.425369 -63.255625 
L 186.425369 -63.255625 
L 196.570824 -63.255625 
L 196.570824 -63.255625 
L 206.716278 -63.255625 
L 206.716278 -63.255625 
L 216.861733 -63.255625 
L 216.861733 -63.255625 
L 227.007188 -63.255625 
L 227.007188 -63.255625 
L 237.152642 -63.255625 
L 237.152642 -63.255625 
L 247.298097 -63.255625 
L 247.298097 -63.255625 
L 257.443551 -63.255625 
L 257.443551 -63.255625 
L 267.589006 -63.255625 
L 267.589006 -63.255625 
L 277.73446 -63.255625 
L 277.73446 -63.255625 
L 287.879915 -63.255625 
L 287.879915 -63.255625 
L 298.025369 -63.255625 
L 298.025369 -63.255625 
L 308.170824 -63.255625 
L 308.170824 -63.255625 
L 318.316278 -63.255625 
L 318.316278 -63.255625 
L 328.461733 -63.255625 
L 328.461733 -63.255625 
L 338.607188 -63.255625 
L 338.607188 -63.255625 
L 348.752642 -63.255625 
L 348.752642 -63.255625 
L 358.898097 -63.255625 
L 358.898097 -63.255625 
L 369.043551 -63.255625 
L 369.043551 -63.255625 
L 379.189006 -63.255625 
L 379.189006 -63.255625 
L 379.189006 -75.795417 
L 379.189006 -75.795417 
L 379.189006 -75.795417 
L 369.043551 -75.795417 
L 369.043551 -73.287459 
L 358.898097 -73.287459 
L 358.898097 -79.378215 
L 348.752642 -79.378215 
L 348.752642 -79.915635 
L 338.607188 -79.915635 
L 338.607188 -76.511977 
L 328.461733 -76.511977 
L 328.461733 -76.153697 
L 318.316278 -76.153697 
L 318.316278 -72.570899 
L 308.170824 -72.570899 
L 308.170824 -71.6752 
L 298.025369 -71.6752 
L 298.025369 -72.03348 
L 287.879915 -72.03348 
L 287.879915 -75.795417 
L 277.73446 -75.795417 
L 277.73446 -72.391759 
L 267.589006 -72.391759 
L 267.589006 -71.49606 
L 257.443551 -71.49606 
L 257.443551 -73.824879 
L 247.298097 -73.824879 
L 247.298097 -76.153697 
L 237.152642 -76.153697 
L 237.152642 -84.035852 
L 227.007188 -84.035852 
L 227.007188 -75.257998 
L 216.861733 -75.257998 
L 216.861733 -77.765956 
L 206.716278 -77.765956 
L 206.716278 -77.765956 
L 196.570824 -77.765956 
L 196.570824 -74.541438 
L 186.425369 -74.541438 
L 186.425369 -76.332837 
L 176.279915 -76.332837 
L 176.279915 -79.378215 
L 166.13446 -79.378215 
L 166.13446 -79.378215 
L 155.989006 -79.378215 
L 155.989006 -77.228537 
L 145.843551 -77.228537 
L 145.843551 -81.527894 
L 135.698097 -81.527894 
L 135.698097 -80.990474 
L 125.552642 -80.990474 
L 125.552642 -76.153697 
L 115.407188 -76.153697 
L 115.407188 -77.407676 
L 105.261733 -77.407676 
L 105.261733 -69.883801 
L 95.116278 -69.883801 
L 95.116278 -66.480143 
L 84.970824 -66.480143 
L 84.970824 -63.613905 
L 74.825369 -63.613905 
z
" id="md660d6e43e" style="stroke:#e41a1c;"/>
    </defs>
    <g clip-path="url(#pb5191a11c4)">
     <use style="fill:#e41a1c;fill-opacity:0.25;stroke:#e41a1c;" x="0" xlink:href="#md660d6e43e" y="361.419687"/>
    </g>
   </g>
   <g id="matplotlib.axis_1">
    <g id="xtick_1">
     <g id="line2d_1">
      <defs>
       <path d="M 0 0 
L 0 6 
" id="mdaa97908ad" style="stroke:#000000;stroke-width:0.5;"/>
      </defs>
      <g>
       <use style="stroke:#000000;stroke-width:0.5;" x="74.730256" xlink:href="#mdaa97908ad" y="298.164062"/>
      </g>
     </g>
     <g id="text_1">
      <!-- −1.0 -->
      <g transform="translate(78.426037 336.445)rotate(-90)scale(0.14 -0.14)">
       <defs>
        <path d="M 7.203125 33.59375 
L 7.203125 27 
L 59.40625 27 
L 59.40625 33.59375 
z
" id="AvenirLTStd-Roman-8722"/>
        <path d="M 36 70.796875 
L 28.703125 70.796875 
L 9.703125 55.40625 
L 14.703125 49.296875 
L 27.40625 60 
L 27.59375 60 
L 27.59375 0 
L 36 0 
z
" id="AvenirLTStd-Roman-49"/>
        <path d="M 13.90625 11.40625 
C 10.59375 11.40625 7.90625 8.703125 7.90625 5.40625 
C 7.90625 2.09375 10.796875 -0.59375 13.90625 -0.59375 
C 17 -0.59375 19.90625 2.09375 19.90625 5.40625 
C 19.90625 8.703125 17.203125 11.40625 13.90625 11.40625 
z
" id="AvenirLTStd-Roman-46"/>
        <path d="M 3.796875 35.40625 
C 3.796875 19.296875 8.296875 -1.203125 27.796875 -1.203125 
C 47.296875 -1.203125 51.796875 19.296875 51.796875 35.40625 
C 51.796875 51.5 47.296875 72 27.796875 72 
C 8.296875 72 3.796875 51.5 3.796875 35.40625 
z
M 12.203125 35.40625 
C 12.203125 45.796875 13.796875 64.796875 27.796875 64.796875 
C 41.796875 64.796875 43.40625 45.796875 43.40625 35.40625 
C 43.40625 25 41.796875 6 27.796875 6 
C 13.796875 6 12.203125 25 12.203125 35.40625 
z
" id="AvenirLTStd-Roman-48"/>
       </defs>
       <use xlink:href="#AvenirLTStd-Roman-8722"/>
       <use x="66.599991" xlink:href="#AvenirLTStd-Roman-49"/>
       <use x="122.199982" xlink:href="#AvenirLTStd-Roman-46"/>
       <use x="149.999969" xlink:href="#AvenirLTStd-Roman-48"/>
      </g>
     </g>
    </g>
    <g id="xtick_2">
     <g id="line2d_2">
      <g>
       <use style="stroke:#000000;stroke-width:0.5;" x="150.868722" xlink:href="#mdaa97908ad" y="298.164062"/>
      </g>
     </g>
     <g id="text_2">
      <!-- −0.5 -->
      <g transform="translate(154.564503 336.445)rotate(-90)scale(0.14 -0.14)">
       <defs>
        <path d="M 47.40625 70.796875 
L 10.296875 70.796875 
L 9.59375 34 
C 13.796875 36.5 19.203125 38.40625 24 38.40625 
C 33.90625 38.40625 41.5 32.703125 41.5 22.296875 
C 41.5 12.5 34.796875 6 26.296875 6 
C 20.296875 6 15.5 9.59375 13.09375 14.90625 
L 4.703125 11.703125 
C 8.5 3.90625 14.90625 -1.203125 25.59375 -1.203125 
C 39.40625 -1.203125 49.90625 8.203125 49.90625 22.296875 
C 49.90625 35.59375 40.90625 45.59375 27.296875 45.59375 
C 24.40625 45.59375 20.90625 45.203125 18.203125 43.90625 
L 18.5 63 
L 47.40625 63 
z
" id="AvenirLTStd-Roman-53"/>
       </defs>
       <use xlink:href="#AvenirLTStd-Roman-8722"/>
       <use x="66.599991" xlink:href="#AvenirLTStd-Roman-48"/>
       <use x="122.199982" xlink:href="#AvenirLTStd-Roman-46"/>
       <use x="149.999969" xlink:href="#AvenirLTStd-Roman-53"/>
      </g>
     </g>
    </g>
    <g id="xtick_3">
     <g id="line2d_3">
      <g>
       <use style="stroke:#000000;stroke-width:0.5;" x="227.007188" xlink:href="#mdaa97908ad" y="298.164062"/>
      </g>
     </g>
     <g id="text_3">
      <!-- 0.0 -->
      <g transform="translate(230.702969 327.121875)rotate(-90)scale(0.14 -0.14)">
       <use xlink:href="#AvenirLTStd-Roman-48"/>
       <use x="55.599991" xlink:href="#AvenirLTStd-Roman-46"/>
       <use x="83.399979" xlink:href="#AvenirLTStd-Roman-48"/>
      </g>
     </g>
    </g>
    <g id="xtick_4">
     <g id="line2d_4">
      <g>
       <use style="stroke:#000000;stroke-width:0.5;" x="303.145653" xlink:href="#mdaa97908ad" y="298.164062"/>
      </g>
     </g>
     <g id="text_4">
      <!-- 0.5 -->
      <g transform="translate(306.841435 327.121875)rotate(-90)scale(0.14 -0.14)">
       <use xlink:href="#AvenirLTStd-Roman-48"/>
       <use x="55.599991" xlink:href="#AvenirLTStd-Roman-46"/>
       <use x="83.399979" xlink:href="#AvenirLTStd-Roman-53"/>
      </g>
     </g>
    </g>
    <g id="xtick_5">
     <g id="line2d_5">
      <g>
       <use style="stroke:#000000;stroke-width:0.5;" x="379.284119" xlink:href="#mdaa97908ad" y="298.164062"/>
      </g>
     </g>
     <g id="text_5">
      <!-- 1.0 -->
      <g transform="translate(382.979901 327.121875)rotate(-90)scale(0.14 -0.14)">
       <use xlink:href="#AvenirLTStd-Roman-49"/>
       <use x="55.599991" xlink:href="#AvenirLTStd-Roman-46"/>
       <use x="83.399979" xlink:href="#AvenirLTStd-Roman-48"/>
      </g>
     </g>
    </g>
    <g id="text_6">
     <!-- hard_hs -->
     <g transform="translate(202.368281 351.028125)scale(0.14 -0.14)">
      <defs>
       <path d="M 7.40625 0 
L 15.203125 0 
L 15.203125 22.796875 
C 15.203125 33.5 19.59375 40.796875 29.703125 40.796875 
C 37 40.796875 40.40625 35.90625 40.40625 28.09375 
L 40.40625 0 
L 48.203125 0 
L 48.203125 28.90625 
C 48.203125 40.203125 42.703125 48 30.40625 48 
C 23.09375 48 17.5 44 15.40625 40.296875 
L 15.203125 40.296875 
L 15.203125 75.59375 
L 7.40625 75.59375 
z
" id="AvenirLTStd-Roman-104"/>
       <path d="M 11.703125 35.703125 
C 15.40625 39.09375 20.59375 40.796875 25.59375 40.796875 
C 32.90625 40.796875 37.203125 37.296875 37.203125 30.5 
L 37.203125 29.09375 
L 34.203125 29.09375 
C 22.703125 29.09375 4.703125 28.203125 4.703125 12.703125 
C 4.703125 3.59375 12.59375 -1.203125 22.09375 -1.203125 
C 29.203125 -1.203125 34.40625 2.203125 37.5 7 
L 37.703125 7 
C 37.703125 5 37.703125 2.09375 38.203125 0 
L 45.703125 0 
C 45.296875 2.40625 45 5.40625 45 8.09375 
L 45 28.203125 
C 45 41.40625 39.203125 48 25.40625 48 
C 18.59375 48 11.59375 45.703125 6.796875 40.796875 
z
M 37.203125 22.5 
L 37.203125 19.5 
C 37 11.90625 32.40625 5.40625 23.40625 5.40625 
C 17.5 5.40625 13.09375 7.59375 13.09375 13.5 
C 13.09375 19.796875 19.5 22.5 29.40625 22.5 
z
" id="AvenirLTStd-Roman-97"/>
       <path d="M 7.40625 0 
L 15.203125 0 
L 15.203125 22.796875 
C 15.203125 33.5 19.40625 40.203125 28.90625 40.203125 
C 30.296875 40.203125 31.796875 40 33.09375 39.59375 
L 33.59375 47.5 
C 32.5 47.90625 31.40625 48 30.40625 48 
C 22.703125 48 16.90625 43.703125 14.796875 39.09375 
L 14.59375 39.09375 
C 14.59375 41.703125 14.40625 44.296875 14.40625 46.796875 
L 7 46.796875 
C 7 43.703125 7.40625 40 7.40625 35.703125 
z
" id="AvenirLTStd-Roman-114"/>
       <path d="M 46.296875 0 
L 54.09375 0 
L 54.09375 75.59375 
L 46.296875 75.59375 
L 46.296875 40 
L 46.09375 40 
C 41.796875 45 36.09375 48 29.296875 48 
C 14.59375 48 4.703125 37.59375 4.703125 23.40625 
C 4.703125 9.40625 15 -1.203125 28.09375 -1.203125 
C 36.5 -1.203125 43.203125 3 46.09375 8.296875 
L 46.296875 8.296875 
z
M 46.296875 23.40625 
C 46.296875 13.59375 39.796875 6 29.703125 6 
C 19.59375 6 13.09375 13.59375 13.09375 23.40625 
C 13.09375 33.203125 19.59375 40.796875 29.703125 40.796875 
C 39.796875 40.796875 46.296875 33.203125 46.296875 23.40625 
z
" id="AvenirLTStd-Roman-100"/>
       <path d="M 0 -12.5 
L 50 -12.5 
L 50 -7.5 
L 0 -7.5 
z
" id="AvenirLTStd-Roman-95"/>
       <path d="M 2.203125 7.5 
C 6.796875 0.90625 12.5 -1.203125 20.40625 -1.203125 
C 29.703125 -1.203125 39.09375 2.90625 39.09375 13.5 
C 39.09375 22.90625 32.09375 25.90625 23.796875 27.5 
C 17.59375 28.703125 12 30.40625 12 34.296875 
C 12 38.703125 16.90625 40.796875 21.203125 40.796875 
C 25.796875 40.796875 29.09375 38.5 31.09375 35.203125 
L 37.59375 39.5 
C 34.40625 45.5 28.296875 48 21.703125 48 
C 13 48 4.203125 43.296875 4.203125 34.203125 
C 4.203125 24.5 11.796875 22.59375 20.703125 20.59375 
C 25.703125 19.5 30.703125 18.203125 30.703125 13.203125 
C 30.703125 8.09375 25.296875 6 20.40625 6 
C 14.90625 6 11.5 8.5 8.40625 12.296875 
z
" id="AvenirLTStd-Roman-115"/>
      </defs>
      <use xlink:href="#AvenirLTStd-Roman-104"/>
      <use x="55.599991" xlink:href="#AvenirLTStd-Roman-97"/>
      <use x="107.499985" xlink:href="#AvenirLTStd-Roman-114"/>
      <use x="142.699982" xlink:href="#AvenirLTStd-Roman-100"/>
      <use x="203.799973" xlink:href="#AvenirLTStd-Roman-95"/>
      <use x="253.799957" xlink:href="#AvenirLTStd-Roman-104"/>
      <use x="309.399948" xlink:href="#AvenirLTStd-Roman-115"/>
     </g>
    </g>
   </g>
   <g id="matplotlib.axis_2">
    <g id="ytick_1">
     <g id="line2d_6">
      <defs>
       <path d="M 0 0 
L 6 0 
" id="m5c4fa684c7" style="stroke:#000000;stroke-width:0.5;"/>
      </defs>
      <g>
       <use style="stroke:#000000;stroke-width:0.5;" x="59.607188" xlink:href="#m5c4fa684c7" y="298.164062"/>
      </g>
     </g>
     <g id="text_7">
      <!-- 0 -->
      <g transform="translate(48.324063 303.455625)scale(0.14 -0.14)">
       <use xlink:href="#AvenirLTStd-Roman-48"/>
      </g>
     </g>
    </g>
    <g id="ytick_2">
     <g id="line2d_7">
      <g>
       <use style="stroke:#000000;stroke-width:0.5;" x="59.607188" xlink:href="#m5c4fa684c7" y="262.336084"/>
      </g>
     </g>
     <g id="text_8">
      <!-- 200 -->
      <g transform="translate(32.757813 267.627647)scale(0.14 -0.14)">
       <defs>
        <path d="M 5 0 
L 50.59375 0 
L 50.59375 7.796875 
L 14.5 7.796875 
L 14.5 8 
L 36.296875 28.5 
C 43.40625 35.203125 50.09375 41.5 50.09375 52.796875 
C 50.09375 65.40625 40.203125 72 28.5 72 
C 17.09375 72 8.203125 65.90625 6.296875 54.296875 
L 15.40625 53.5 
C 16.703125 60.296875 21.703125 64.796875 28.796875 64.796875 
C 35.90625 64.796875 41.703125 60.203125 41.703125 52.796875 
C 41.703125 45.90625 38.40625 42.09375 31.703125 35.59375 
L 5 9.59375 
z
" id="AvenirLTStd-Roman-50"/>
       </defs>
       <use xlink:href="#AvenirLTStd-Roman-50"/>
       <use x="55.599991" xlink:href="#AvenirLTStd-Roman-48"/>
       <use x="111.199982" xlink:href="#AvenirLTStd-Roman-48"/>
      </g>
     </g>
    </g>
    <g id="ytick_3">
     <g id="line2d_8">
      <g>
       <use style="stroke:#000000;stroke-width:0.5;" x="59.607188" xlink:href="#m5c4fa684c7" y="226.508106"/>
      </g>
     </g>
     <g id="text_9">
      <!-- 400 -->
      <g transform="translate(32.757813 231.799668)scale(0.14 -0.14)">
       <defs>
        <path d="M 41.90625 70.796875 
L 31.59375 70.796875 
L 3.5 25.5 
L 3.5 16.203125 
L 33.5 16.203125 
L 33.5 0 
L 41.90625 0 
L 41.90625 16.203125 
L 52.09375 16.203125 
L 52.09375 24 
L 41.90625 24 
z
M 33.5 24 
L 10.703125 24 
L 33.296875 61 
L 33.5 61 
z
" id="AvenirLTStd-Roman-52"/>
       </defs>
       <use xlink:href="#AvenirLTStd-Roman-52"/>
       <use x="55.599991" xlink:href="#AvenirLTStd-Roman-48"/>
       <use x="111.199982" xlink:href="#AvenirLTStd-Roman-48"/>
      </g>
     </g>
    </g>
    <g id="ytick_4">
     <g id="line2d_9">
      <g>
       <use style="stroke:#000000;stroke-width:0.5;" x="59.607188" xlink:href="#m5c4fa684c7" y="190.680128"/>
      </g>
     </g>
     <g id="text_10">
      <!-- 600 -->
      <g transform="translate(32.757813 195.97169)scale(0.14 -0.14)">
       <defs>
        <path d="M 39.40625 70.796875 
L 29.59375 70.796875 
L 10.796875 40.90625 
C 7 34.796875 4.09375 29.203125 4.09375 21 
C 4.09375 7.203125 14.40625 -1.203125 27.796875 -1.203125 
C 41.203125 -1.203125 51.5 7.203125 51.5 21 
C 51.5 34.203125 42.40625 43.203125 30.09375 43.203125 
C 27.203125 43.203125 23.203125 42.59375 20.59375 41.09375 
L 20.40625 41.296875 
z
M 27.796875 36 
C 36.296875 36 43.09375 30.203125 43.09375 21 
C 43.09375 11.796875 36.296875 6 27.796875 6 
C 19.296875 6 12.5 11.796875 12.5 21 
C 12.5 30.203125 19.296875 36 27.796875 36 
z
" id="AvenirLTStd-Roman-54"/>
       </defs>
       <use xlink:href="#AvenirLTStd-Roman-54"/>
       <use x="55.599991" xlink:href="#AvenirLTStd-Roman-48"/>
       <use x="111.199982" xlink:href="#AvenirLTStd-Roman-48"/>
      </g>
     </g>
    </g>
    <g id="ytick_5">
     <g id="line2d_10">
      <g>
       <use style="stroke:#000000;stroke-width:0.5;" x="59.607188" xlink:href="#m5c4fa684c7" y="154.852149"/>
      </g>
     </g>
     <g id="text_11">
      <!-- 800 -->
      <g transform="translate(32.757813 160.143712)scale(0.14 -0.14)">
       <defs>
        <path d="M 7.59375 53.5 
C 7.59375 46.796875 12 39.796875 19.203125 37.90625 
L 19.203125 37.703125 
C 10.703125 35.90625 5.203125 28.40625 5.203125 19.5 
C 5.203125 6.59375 15.203125 -1.203125 27.796875 -1.203125 
C 40.40625 -1.203125 50.40625 6.59375 50.40625 19.5 
C 50.40625 28.40625 44.90625 35.90625 36.40625 37.703125 
L 36.40625 37.90625 
C 43.59375 39.796875 48 46.796875 48 53.5 
C 48 64.59375 39.203125 72 27.796875 72 
C 16.40625 72 7.59375 64.59375 7.59375 53.5 
z
M 16 53.09375 
C 16 59.796875 20.796875 64.796875 27.796875 64.796875 
C 34.796875 64.796875 39.59375 59.796875 39.59375 53.09375 
C 39.59375 46.40625 34.796875 41.40625 27.796875 41.40625 
C 20.796875 41.40625 16 46.40625 16 53.09375 
z
M 13.59375 20.09375 
C 13.59375 28.40625 19.90625 34.203125 27.796875 34.203125 
C 35.703125 34.203125 42 28.40625 42 20.09375 
C 42 11.796875 35.703125 6 27.796875 6 
C 19.90625 6 13.59375 11.796875 13.59375 20.09375 
z
" id="AvenirLTStd-Roman-56"/>
       </defs>
       <use xlink:href="#AvenirLTStd-Roman-56"/>
       <use x="55.599991" xlink:href="#AvenirLTStd-Roman-48"/>
       <use x="111.199982" xlink:href="#AvenirLTStd-Roman-48"/>
      </g>
     </g>
    </g>
    <g id="ytick_6">
     <g id="line2d_11">
      <g>
       <use style="stroke:#000000;stroke-width:0.5;" x="59.607188" xlink:href="#m5c4fa684c7" y="119.024171"/>
      </g>
     </g>
     <g id="text_12">
      <!-- 1000 -->
      <g transform="translate(24.974688 124.315734)scale(0.14 -0.14)">
       <use xlink:href="#AvenirLTStd-Roman-49"/>
       <use x="55.599991" xlink:href="#AvenirLTStd-Roman-48"/>
       <use x="111.199982" xlink:href="#AvenirLTStd-Roman-48"/>
       <use x="166.799973" xlink:href="#AvenirLTStd-Roman-48"/>
      </g>
     </g>
    </g>
    <g id="ytick_7">
     <g id="line2d_12">
      <g>
       <use style="stroke:#000000;stroke-width:0.5;" x="59.607188" xlink:href="#m5c4fa684c7" y="83.196193"/>
      </g>
     </g>
     <g id="text_13">
      <!-- 1200 -->
      <g transform="translate(24.974688 88.487755)scale(0.14 -0.14)">
       <use xlink:href="#AvenirLTStd-Roman-49"/>
       <use x="55.599991" xlink:href="#AvenirLTStd-Roman-50"/>
       <use x="111.199982" xlink:href="#AvenirLTStd-Roman-48"/>
       <use x="166.799973" xlink:href="#AvenirLTStd-Roman-48"/>
      </g>
     </g>
    </g>
    <g id="text_14">
     <!-- Count -->
     <g transform="translate(17.783125 208.778281)rotate(-90)scale(0.14 -0.14)">
      <defs>
       <path d="M 65.703125 61.5 
C 59.703125 69.296875 50.296875 72.59375 40.703125 72.59375 
C 19.703125 72.59375 4.703125 56.203125 4.703125 35.40625 
C 4.703125 13.90625 20.40625 -1.796875 40.703125 -1.796875 
C 52 -1.796875 61.203125 2.09375 67.5 10.59375 
L 61.203125 15.90625 
C 56.203125 9.5 49.296875 6 40.703125 6 
C 24.796875 6 13.703125 19 13.703125 35.40625 
C 13.703125 50.90625 24.90625 64.796875 40.703125 64.796875 
C 47.5 64.796875 54.203125 61.90625 58.40625 56.203125 
z
" id="AvenirLTStd-Roman-67"/>
       <path d="M 4.703125 23.40625 
C 4.703125 8.796875 15.296875 -1.203125 29.703125 -1.203125 
C 44.09375 -1.203125 54.703125 8.796875 54.703125 23.40625 
C 54.703125 38 44.09375 48 29.703125 48 
C 15.296875 48 4.703125 38 4.703125 23.40625 
z
M 13.09375 23.40625 
C 13.09375 33.203125 19.59375 40.796875 29.703125 40.796875 
C 39.796875 40.796875 46.296875 33.203125 46.296875 23.40625 
C 46.296875 13.59375 39.796875 6 29.703125 6 
C 19.59375 6 13.09375 13.59375 13.09375 23.40625 
z
" id="AvenirLTStd-Roman-111"/>
       <path d="M 48.203125 46.796875 
L 40.40625 46.796875 
L 40.40625 24 
C 40.40625 13.296875 36 6 25.90625 6 
C 18.59375 6 15.203125 10.90625 15.203125 18.703125 
L 15.203125 46.796875 
L 7.40625 46.796875 
L 7.40625 17.90625 
C 7.40625 6.59375 12.90625 -1.203125 25.203125 -1.203125 
C 32.90625 -1.203125 38.703125 3.09375 40.796875 7.703125 
L 41 7.703125 
C 41 5.09375 41.203125 2.5 41.203125 0 
L 48.59375 0 
C 48.59375 3.09375 48.203125 6.796875 48.203125 11.09375 
z
" id="AvenirLTStd-Roman-117"/>
       <path d="M 7.40625 0 
L 15.203125 0 
L 15.203125 22.796875 
C 15.203125 33.5 19.59375 40.796875 29.703125 40.796875 
C 37 40.796875 40.40625 35.90625 40.40625 28.09375 
L 40.40625 0 
L 48.203125 0 
L 48.203125 28.90625 
C 48.203125 40.203125 42.703125 48 30.40625 48 
C 22.703125 48 16.90625 43.703125 14.796875 39.09375 
L 14.59375 39.09375 
C 14.59375 41.703125 14.40625 44.296875 14.40625 46.796875 
L 7 46.796875 
C 7 43.703125 7.40625 40 7.40625 35.703125 
z
" id="AvenirLTStd-Roman-110"/>
       <path d="M 33 46.796875 
L 19.203125 46.796875 
L 19.203125 60.09375 
L 11.40625 60.09375 
L 11.40625 46.796875 
L 1.203125 46.796875 
L 1.203125 40.203125 
L 11.40625 40.203125 
L 11.40625 14.5 
C 11.40625 4.796875 13.203125 -1.203125 24.296875 -1.203125 
C 27.203125 -1.203125 30.703125 -0.703125 33.40625 0.5 
L 33.09375 7.59375 
C 31 6.5 28.5 6 26.203125 6 
C 19.296875 6 19.203125 10.796875 19.203125 16.796875 
L 19.203125 40.203125 
L 33 40.203125 
z
" id="AvenirLTStd-Roman-116"/>
      </defs>
      <use xlink:href="#AvenirLTStd-Roman-67"/>
      <use x="70.399994" xlink:href="#AvenirLTStd-Roman-111"/>
      <use x="129.799988" xlink:href="#AvenirLTStd-Roman-117"/>
      <use x="185.399979" xlink:href="#AvenirLTStd-Roman-110"/>
      <use x="240.999969" xlink:href="#AvenirLTStd-Roman-116"/>
     </g>
    </g>
   </g>
   <g id="patch_3">
    <path d="M 59.607188 298.164062 
L 59.607188 80.724062 
" style="fill:none;stroke:#000000;stroke-linecap:square;stroke-linejoin:miter;stroke-width:2;"/>
   </g>
   <g id="patch_4">
    <path d="M 394.407188 298.164062 
L 394.407188 80.724062 
" style="fill:none;stroke:#000000;stroke-linecap:square;stroke-linejoin:miter;stroke-width:2;"/>
   </g>
   <g id="patch_5">
    <path d="M 59.607188 298.164062 
L 394.407188 298.164062 
" style="fill:none;stroke:#000000;stroke-linecap:square;stroke-linejoin:miter;stroke-width:2;"/>
   </g>
   <g id="patch_6">
    <path d="M 59.607188 80.724062 
L 394.407188 80.724062 
" style="fill:none;stroke:#000000;stroke-linecap:square;stroke-linejoin:miter;stroke-width:2;"/>
   </g>
   <g id="legend_1">
    <g id="patch_7">
     <path d="M 125.7325 73.724062 
L 328.281875 73.724062 
Q 331.081875 73.724062 331.081875 70.924062 
L 331.081875 10 
Q 331.081875 7.2 328.281875 7.2 
L 125.7325 7.2 
Q 122.9325 7.2 122.9325 10 
L 122.9325 70.924062 
Q 122.9325 73.724062 125.7325 73.724062 
z
" style="fill:#ffffff;opacity:0.8;stroke:#cccccc;stroke-linejoin:miter;"/>
    </g>
    <g id="text_15">
     <!-- cluster -->
     <g transform="translate(206.259844 23.383125)scale(0.14 -0.14)">
      <defs>
       <path d="M 46.90625 40.59375 
C 42.203125 45.703125 35.796875 48 28.90625 48 
C 14.5 48 4.703125 37.59375 4.703125 23.40625 
C 4.703125 9 14.40625 -1.203125 28.90625 -1.203125 
C 35.703125 -1.203125 42.09375 1.09375 46.59375 6.296875 
L 40.796875 11.796875 
C 37.90625 7.796875 34 6 28.90625 6 
C 19.40625 6 13.09375 13.796875 13.09375 23.40625 
C 13.09375 33 18.40625 40.796875 28.90625 40.796875 
C 33.59375 40.796875 37.40625 39.09375 40.703125 35.09375 
z
" id="AvenirLTStd-Roman-99"/>
       <path d="M 8.09375 0 
L 15.90625 0 
L 15.90625 75.59375 
L 8.09375 75.59375 
z
" id="AvenirLTStd-Roman-108"/>
       <path d="M 43.296875 13.09375 
C 39.59375 8.40625 35.09375 6 28.40625 6 
C 19.90625 6 13.703125 12.90625 13.09375 21 
L 50.90625 21 
L 50.90625 23.5 
C 50.90625 39 41.90625 48 28.703125 48 
C 14.90625 48 4.703125 37.90625 4.703125 23.40625 
C 4.703125 9.796875 13.703125 -1.203125 28.40625 -1.203125 
C 37.09375 -1.203125 43.703125 1.40625 49.203125 8.5 
z
M 13.09375 27.59375 
C 14.09375 35.5 19.796875 40.796875 28.40625 40.796875 
C 37 40.796875 42.203125 35.5 42.5 27.59375 
z
" id="AvenirLTStd-Roman-101"/>
      </defs>
      <use xlink:href="#AvenirLTStd-Roman-99"/>
      <use x="48.199997" xlink:href="#AvenirLTStd-Roman-108"/>
      <use x="72.199982" xlink:href="#AvenirLTStd-Roman-117"/>
      <use x="127.799973" xlink:href="#AvenirLTStd-Roman-115"/>
      <use x="170.399963" xlink:href="#AvenirLTStd-Roman-116"/>
      <use x="205.59996" xlink:href="#AvenirLTStd-Roman-101"/>
      <use x="261.199951" xlink:href="#AvenirLTStd-Roman-114"/>
     </g>
    </g>
    <g id="patch_8">
     <path d="M 128.5325 44.157812 
L 156.5325 44.157812 
L 156.5325 34.357812 
L 128.5325 34.357812 
z
" style="fill:#e41a1c;fill-opacity:0.25;stroke:#e41a1c;stroke-linejoin:miter;"/>
    </g>
    <g id="text_16">
     <!-- 0 -->
     <g transform="translate(167.7325 44.157812)scale(0.14 -0.14)">
      <use xlink:href="#AvenirLTStd-Roman-48"/>
     </g>
    </g>
    <g id="patch_9">
     <path d="M 128.5325 64.9325 
L 156.5325 64.9325 
L 156.5325 55.1325 
L 128.5325 55.1325 
z
" style="fill:#377eb8;fill-opacity:0.25;stroke:#377eb8;stroke-linejoin:miter;"/>
    </g>
    <g id="text_17">
     <!-- 1 -->
     <g transform="translate(167.7325 64.9325)scale(0.14 -0.14)">
      <use xlink:href="#AvenirLTStd-Roman-49"/>
     </g>
    </g>
    <g id="patch_10">
     <path d="M 203.515625 44.157812 
L 231.515625 44.157812 
L 231.515625 34.357812 
L 203.515625 34.357812 
z
" style="fill:#984ea3;fill-opacity:0.25;stroke:#984ea3;stroke-linejoin:miter;"/>
    </g>
    <g id="text_18">
     <!-- 2 -->
     <g transform="translate(242.715625 44.157812)scale(0.14 -0.14)">
      <use xlink:href="#AvenirLTStd-Roman-50"/>
     </g>
    </g>
    <g id="patch_11">
     <path d="M 203.515625 64.9325 
L 231.515625 64.9325 
L 231.515625 55.1325 
L 203.515625 55.1325 
z
" style="fill:#ffff33;fill-opacity:0.25;stroke:#ffff33;stroke-linejoin:miter;"/>
    </g>
    <g id="text_19">
     <!-- 3 -->
     <g transform="translate(242.715625 64.9325)scale(0.14 -0.14)">
      <defs>
       <path d="M 20.40625 33.59375 
L 23 33.59375 
C 31.703125 33.59375 40.90625 30.296875 40.90625 19.90625 
C 40.90625 11.703125 34.5 6 26.5 6 
C 18.703125 6 14.59375 8.90625 12.203125 16.5 
L 3.703125 13.703125 
C 7.296875 3.203125 15.796875 -1.203125 26.5 -1.203125 
C 39.09375 -1.203125 49.90625 5.796875 49.90625 19.296875 
C 49.90625 28.203125 44.40625 35.59375 35.40625 37.09375 
L 35.40625 37.296875 
C 42.5 39.5 47.5 46.09375 47.5 53.5 
C 47.5 65.703125 37.703125 72 26.40625 72 
C 17.40625 72 9.296875 68 5.90625 60 
L 14 56.90625 
C 16.5 62.09375 21.09375 64.796875 27 64.796875 
C 34.09375 64.796875 39.09375 60.296875 39.09375 53.09375 
C 39.09375 42.40625 30 40.796875 23 40.796875 
L 20.40625 40.796875 
z
" id="AvenirLTStd-Roman-51"/>
      </defs>
      <use xlink:href="#AvenirLTStd-Roman-51"/>
     </g>
    </g>
    <g id="patch_12">
     <path d="M 278.49875 44.157812 
L 306.49875 44.157812 
L 306.49875 34.357812 
L 278.49875 34.357812 
z
" style="fill:#f781bf;fill-opacity:0.25;stroke:#f781bf;stroke-linejoin:miter;"/>
    </g>
    <g id="text_20">
     <!-- 4 -->
     <g transform="translate(317.69875 44.157812)scale(0.14 -0.14)">
      <use xlink:href="#AvenirLTStd-Roman-52"/>
     </g>
    </g>
    <g id="patch_13">
     <path d="M 278.49875 64.9325 
L 306.49875 64.9325 
L 306.49875 55.1325 
L 278.49875 55.1325 
z
" style="fill:#999999;fill-opacity:0.25;stroke:#999999;stroke-linejoin:miter;"/>
    </g>
    <g id="text_21">
     <!-- 5 -->
     <g transform="translate(317.69875 64.9325)scale(0.14 -0.14)">
      <use xlink:href="#AvenirLTStd-Roman-53"/>
     </g>
    </g>
   </g>
  </g>
 </g>
 <defs>
  <clipPath id="pb5191a11c4">
   <rect height="217.44" width="334.8" x="59.607188" y="80.724062"/>
  </clipPath>
 </defs>
</svg>
