<?xml version="1.0" encoding="utf-8" standalone="no"?>
<!DOCTYPE svg PUBLIC "-//W3C//DTD SVG 1.1//EN"
  "http://www.w3.org/Graphics/SVG/1.1/DTD/svg11.dtd">
<!-- Created with matplotlib (https://matplotlib.org/) -->
<svg height="352.096562pt" version="1.1" viewBox="0 0 401.607188 352.096562" width="401.607188pt" xmlns="http://www.w3.org/2000/svg" xmlns:xlink="http://www.w3.org/1999/xlink">
 <metadata>
  <rdf:RDF xmlns:cc="http://creativecommons.org/ns#" xmlns:dc="http://purl.org/dc/elements/1.1/" xmlns:rdf="http://www.w3.org/1999/02/22-rdf-syntax-ns#">
   <cc:Work>
    <dc:type rdf:resource="http://purl.org/dc/dcmitype/StillImage"/>
    <dc:date>2022-03-10T04:37:15.230068</dc:date>
    <dc:format>image/svg+xml</dc:format>
    <dc:creator>
     <cc:Agent>
      <dc:title>Matplotlib v3.3.4, https://matplotlib.org/</dc:title>
     </cc:Agent>
    </dc:creator>
   </cc:Work>
  </rdf:RDF>
 </metadata>
 <defs>
  <style type="text/css">*{stroke-linecap:butt;stroke-linejoin:round;}</style>
 </defs>
 <g id="figure_1">
  <g id="patch_1">
   <path d="M 0 352.096562 
L 401.607188 352.096562 
L 401.607188 0 
L 0 0 
z
" style="fill:none;"/>
  </g>
  <g id="axes_1">
   <g id="patch_2">
    <path d="M 59.607188 298.164062 
L 394.407188 298.164062 
L 394.407188 80.724062 
L 59.607188 80.724062 
z
" style="fill:#ffffff;"/>
   </g>
   <g id="PolyCollection_1">
    <defs>
     <path d="M 74.825369 -68.828718 
L 74.825369 -53.9325 
L 84.970824 -53.9325 
L 84.970824 -53.9325 
L 95.116278 -53.9325 
L 95.116278 -53.9325 
L 105.261733 -53.9325 
L 105.261733 -53.9325 
L 115.407188 -53.9325 
L 115.407188 -53.9325 
L 125.552642 -53.9325 
L 125.552642 -53.9325 
L 135.698097 -53.9325 
L 135.698097 -53.9325 
L 145.843551 -53.9325 
L 145.843551 -53.9325 
L 155.989006 -53.9325 
L 155.989006 -53.9325 
L 166.13446 -53.9325 
L 166.13446 -53.9325 
L 176.279915 -53.9325 
L 176.279915 -53.9325 
L 186.425369 -53.9325 
L 186.425369 -53.9325 
L 196.570824 -53.9325 
L 196.570824 -53.9325 
L 206.716278 -53.9325 
L 206.716278 -53.9325 
L 216.861733 -53.9325 
L 216.861733 -53.9325 
L 227.007188 -53.9325 
L 227.007188 -53.9325 
L 237.152642 -53.9325 
L 237.152642 -53.9325 
L 247.298097 -53.9325 
L 247.298097 -53.9325 
L 257.443551 -53.9325 
L 257.443551 -53.9325 
L 267.589006 -53.9325 
L 267.589006 -53.9325 
L 277.73446 -53.9325 
L 277.73446 -53.9325 
L 287.879915 -53.9325 
L 287.879915 -53.9325 
L 298.025369 -53.9325 
L 298.025369 -53.9325 
L 308.170824 -53.9325 
L 308.170824 -53.9325 
L 318.316278 -53.9325 
L 318.316278 -53.9325 
L 328.461733 -53.9325 
L 328.461733 -53.9325 
L 338.607188 -53.9325 
L 338.607188 -53.9325 
L 348.752642 -53.9325 
L 348.752642 -53.9325 
L 358.898097 -53.9325 
L 358.898097 -53.9325 
L 369.043551 -53.9325 
L 369.043551 -53.9325 
L 379.189006 -53.9325 
L 379.189006 -53.9325 
L 379.189006 -56.619476 
L 379.189006 -56.619476 
L 379.189006 -56.619476 
L 369.043551 -56.619476 
L 369.043551 -54.12106 
L 358.898097 -54.12106 
L 358.898097 -54.02678 
L 348.752642 -54.02678 
L 348.752642 -54.07392 
L 338.607188 -54.07392 
L 338.607188 -54.12106 
L 328.461733 -54.12106 
L 328.461733 -54.12106 
L 318.316278 -54.12106 
L 318.316278 -54.07392 
L 308.170824 -54.07392 
L 308.170824 -54.07392 
L 298.025369 -54.07392 
L 298.025369 -54.07392 
L 287.879915 -54.07392 
L 287.879915 -54.07392 
L 277.73446 -54.07392 
L 277.73446 -54.1682 
L 267.589006 -54.1682 
L 267.589006 -54.12106 
L 257.443551 -54.12106 
L 257.443551 -54.02678 
L 247.298097 -54.02678 
L 247.298097 -54.309619 
L 237.152642 -54.309619 
L 237.152642 -54.12106 
L 227.007188 -54.12106 
L 227.007188 -54.21534 
L 216.861733 -54.21534 
L 216.861733 -54.07392 
L 206.716278 -54.07392 
L 206.716278 -54.451039 
L 196.570824 -54.451039 
L 196.570824 -54.875299 
L 186.425369 -54.875299 
L 186.425369 -54.403899 
L 176.279915 -54.403899 
L 176.279915 -54.356759 
L 166.13446 -54.356759 
L 166.13446 -54.356759 
L 155.989006 -54.356759 
L 155.989006 -54.356759 
L 145.843551 -54.356759 
L 145.843551 -54.639599 
L 135.698097 -54.639599 
L 135.698097 -54.545319 
L 125.552642 -54.545319 
L 125.552642 -54.686739 
L 115.407188 -54.686739 
L 115.407188 -55.535258 
L 105.261733 -55.535258 
L 105.261733 -58.599353 
L 95.116278 -58.599353 
L 95.116278 -63.360486 
L 84.970824 -63.360486 
L 84.970824 -68.828718 
L 74.825369 -68.828718 
z
" id="m4b98a1f868" style="stroke:#999999;"/>
    </defs>
    <g clip-path="url(#pfac371d4c7)">
     <use style="fill:#999999;fill-opacity:0.25;stroke:#999999;" x="0" xlink:href="#m4b98a1f868" y="352.096562"/>
    </g>
   </g>
   <g id="PolyCollection_2">
    <defs>
     <path d="M 74.825369 -57.279435 
L 74.825369 -53.9325 
L 84.970824 -53.9325 
L 84.970824 -53.9325 
L 95.116278 -53.9325 
L 95.116278 -53.9325 
L 105.261733 -53.9325 
L 105.261733 -53.9325 
L 115.407188 -53.9325 
L 115.407188 -53.9325 
L 125.552642 -53.9325 
L 125.552642 -53.9325 
L 135.698097 -53.9325 
L 135.698097 -53.9325 
L 145.843551 -53.9325 
L 145.843551 -53.9325 
L 155.989006 -53.9325 
L 155.989006 -53.9325 
L 166.13446 -53.9325 
L 166.13446 -53.9325 
L 176.279915 -53.9325 
L 176.279915 -53.9325 
L 186.425369 -53.9325 
L 186.425369 -53.9325 
L 196.570824 -53.9325 
L 196.570824 -53.9325 
L 206.716278 -53.9325 
L 206.716278 -53.9325 
L 216.861733 -53.9325 
L 216.861733 -53.9325 
L 227.007188 -53.9325 
L 227.007188 -53.9325 
L 237.152642 -53.9325 
L 237.152642 -53.9325 
L 247.298097 -53.9325 
L 247.298097 -53.9325 
L 257.443551 -53.9325 
L 257.443551 -53.9325 
L 267.589006 -53.9325 
L 267.589006 -53.9325 
L 277.73446 -53.9325 
L 277.73446 -53.9325 
L 287.879915 -53.9325 
L 287.879915 -53.9325 
L 298.025369 -53.9325 
L 298.025369 -53.9325 
L 308.170824 -53.9325 
L 308.170824 -53.9325 
L 318.316278 -53.9325 
L 318.316278 -53.9325 
L 328.461733 -53.9325 
L 328.461733 -53.9325 
L 338.607188 -53.9325 
L 338.607188 -53.9325 
L 348.752642 -53.9325 
L 348.752642 -53.9325 
L 358.898097 -53.9325 
L 358.898097 -53.9325 
L 369.043551 -53.9325 
L 369.043551 -53.9325 
L 379.189006 -53.9325 
L 379.189006 -53.9325 
L 379.189006 -80.94368 
L 379.189006 -80.94368 
L 379.189006 -80.94368 
L 369.043551 -80.94368 
L 369.043551 -56.760896 
L 358.898097 -56.760896 
L 358.898097 -56.383776 
L 348.752642 -56.383776 
L 348.752642 -55.818097 
L 338.607188 -55.818097 
L 338.607188 -55.440978 
L 328.461733 -55.440978 
L 328.461733 -55.299558 
L 318.316278 -55.299558 
L 318.316278 -55.393838 
L 308.170824 -55.393838 
L 308.170824 -55.299558 
L 298.025369 -55.299558 
L 298.025369 -54.733879 
L 287.879915 -54.733879 
L 287.879915 -54.922439 
L 277.73446 -54.922439 
L 277.73446 -55.016718 
L 267.589006 -55.016718 
L 267.589006 -55.063858 
L 257.443551 -55.063858 
L 257.443551 -54.969578 
L 247.298097 -54.969578 
L 247.298097 -55.158138 
L 237.152642 -55.158138 
L 237.152642 -55.346698 
L 227.007188 -55.346698 
L 227.007188 -55.063858 
L 216.861733 -55.063858 
L 216.861733 -54.969578 
L 206.716278 -54.969578 
L 206.716278 -55.299558 
L 196.570824 -55.299558 
L 196.570824 -54.875299 
L 186.425369 -54.875299 
L 186.425369 -55.488118 
L 176.279915 -55.488118 
L 176.279915 -54.922439 
L 166.13446 -54.922439 
L 166.13446 -55.865237 
L 155.989006 -55.865237 
L 155.989006 -55.393838 
L 145.843551 -55.393838 
L 145.843551 -55.676677 
L 135.698097 -55.676677 
L 135.698097 -56.289497 
L 125.552642 -56.289497 
L 125.552642 -56.949456 
L 115.407188 -56.949456 
L 115.407188 -58.269374 
L 105.261733 -58.269374 
L 105.261733 -67.79164 
L 95.116278 -67.79164 
L 95.116278 -65.764623 
L 84.970824 -65.764623 
L 84.970824 -57.279435 
L 74.825369 -57.279435 
z
" id="m49191832e2" style="stroke:#f781bf;"/>
    </defs>
    <g clip-path="url(#pfac371d4c7)">
     <use style="fill:#f781bf;fill-opacity:0.25;stroke:#f781bf;" x="0" xlink:href="#m49191832e2" y="352.096562"/>
    </g>
   </g>
   <g id="PolyCollection_3">
    <defs>
     <path d="M 74.825369 -60.43781 
L 74.825369 -53.9325 
L 84.970824 -53.9325 
L 84.970824 -53.9325 
L 95.116278 -53.9325 
L 95.116278 -53.9325 
L 105.261733 -53.9325 
L 105.261733 -53.9325 
L 115.407188 -53.9325 
L 115.407188 -53.9325 
L 125.552642 -53.9325 
L 125.552642 -53.9325 
L 135.698097 -53.9325 
L 135.698097 -53.9325 
L 145.843551 -53.9325 
L 145.843551 -53.9325 
L 155.989006 -53.9325 
L 155.989006 -53.9325 
L 166.13446 -53.9325 
L 166.13446 -53.9325 
L 176.279915 -53.9325 
L 176.279915 -53.9325 
L 186.425369 -53.9325 
L 186.425369 -53.9325 
L 196.570824 -53.9325 
L 196.570824 -53.9325 
L 206.716278 -53.9325 
L 206.716278 -53.9325 
L 216.861733 -53.9325 
L 216.861733 -53.9325 
L 227.007188 -53.9325 
L 227.007188 -53.9325 
L 237.152642 -53.9325 
L 237.152642 -53.9325 
L 247.298097 -53.9325 
L 247.298097 -53.9325 
L 257.443551 -53.9325 
L 257.443551 -53.9325 
L 267.589006 -53.9325 
L 267.589006 -53.9325 
L 277.73446 -53.9325 
L 277.73446 -53.9325 
L 287.879915 -53.9325 
L 287.879915 -53.9325 
L 298.025369 -53.9325 
L 298.025369 -53.9325 
L 308.170824 -53.9325 
L 308.170824 -53.9325 
L 318.316278 -53.9325 
L 318.316278 -53.9325 
L 328.461733 -53.9325 
L 328.461733 -53.9325 
L 338.607188 -53.9325 
L 338.607188 -53.9325 
L 348.752642 -53.9325 
L 348.752642 -53.9325 
L 358.898097 -53.9325 
L 358.898097 -53.9325 
L 369.043551 -53.9325 
L 369.043551 -53.9325 
L 379.189006 -53.9325 
L 379.189006 -53.9325 
L 379.189006 -53.9325 
L 379.189006 -53.9325 
L 379.189006 -53.9325 
L 369.043551 -53.9325 
L 369.043551 -53.9325 
L 358.898097 -53.9325 
L 358.898097 -53.9325 
L 348.752642 -53.9325 
L 348.752642 -53.9325 
L 338.607188 -53.9325 
L 338.607188 -53.9325 
L 328.461733 -53.9325 
L 328.461733 -53.9325 
L 318.316278 -53.9325 
L 318.316278 -53.9325 
L 308.170824 -53.9325 
L 308.170824 -53.9325 
L 298.025369 -53.9325 
L 298.025369 -53.9325 
L 287.879915 -53.9325 
L 287.879915 -53.9325 
L 277.73446 -53.9325 
L 277.73446 -53.9325 
L 267.589006 -53.9325 
L 267.589006 -53.9325 
L 257.443551 -53.9325 
L 257.443551 -53.9325 
L 247.298097 -53.9325 
L 247.298097 -53.9325 
L 237.152642 -53.9325 
L 237.152642 -53.9325 
L 227.007188 -53.9325 
L 227.007188 -53.9325 
L 216.861733 -53.9325 
L 216.861733 -53.9325 
L 206.716278 -53.9325 
L 206.716278 -53.97964 
L 196.570824 -53.97964 
L 196.570824 -54.12106 
L 186.425369 -54.12106 
L 186.425369 -54.26248 
L 176.279915 -54.26248 
L 176.279915 -54.592459 
L 166.13446 -54.592459 
L 166.13446 -54.781019 
L 155.989006 -54.781019 
L 155.989006 -55.488118 
L 145.843551 -55.488118 
L 145.843551 -56.383776 
L 135.698097 -56.383776 
L 135.698097 -57.656555 
L 125.552642 -57.656555 
L 125.552642 -59.117892 
L 115.407188 -59.117892 
L 115.407188 -64.680404 
L 105.261733 -64.680404 
L 105.261733 -79.435202 
L 95.116278 -79.435202 
L 95.116278 -82.263598 
L 84.970824 -82.263598 
L 84.970824 -60.43781 
L 74.825369 -60.43781 
z
" id="m53285e49ac" style="stroke:#ffff33;"/>
    </defs>
    <g clip-path="url(#pfac371d4c7)">
     <use style="fill:#ffff33;fill-opacity:0.25;stroke:#ffff33;" x="0" xlink:href="#m53285e49ac" y="352.096562"/>
    </g>
   </g>
   <g id="PolyCollection_4">
    <defs>
     <path d="M 74.825369 -53.97964 
L 74.825369 -53.9325 
L 84.970824 -53.9325 
L 84.970824 -53.9325 
L 95.116278 -53.9325 
L 95.116278 -53.9325 
L 105.261733 -53.9325 
L 105.261733 -53.9325 
L 115.407188 -53.9325 
L 115.407188 -53.9325 
L 125.552642 -53.9325 
L 125.552642 -53.9325 
L 135.698097 -53.9325 
L 135.698097 -53.9325 
L 145.843551 -53.9325 
L 145.843551 -53.9325 
L 155.989006 -53.9325 
L 155.989006 -53.9325 
L 166.13446 -53.9325 
L 166.13446 -53.9325 
L 176.279915 -53.9325 
L 176.279915 -53.9325 
L 186.425369 -53.9325 
L 186.425369 -53.9325 
L 196.570824 -53.9325 
L 196.570824 -53.9325 
L 206.716278 -53.9325 
L 206.716278 -53.9325 
L 216.861733 -53.9325 
L 216.861733 -53.9325 
L 227.007188 -53.9325 
L 227.007188 -53.9325 
L 237.152642 -53.9325 
L 237.152642 -53.9325 
L 247.298097 -53.9325 
L 247.298097 -53.9325 
L 257.443551 -53.9325 
L 257.443551 -53.9325 
L 267.589006 -53.9325 
L 267.589006 -53.9325 
L 277.73446 -53.9325 
L 277.73446 -53.9325 
L 287.879915 -53.9325 
L 287.879915 -53.9325 
L 298.025369 -53.9325 
L 298.025369 -53.9325 
L 308.170824 -53.9325 
L 308.170824 -53.9325 
L 318.316278 -53.9325 
L 318.316278 -53.9325 
L 328.461733 -53.9325 
L 328.461733 -53.9325 
L 338.607188 -53.9325 
L 338.607188 -53.9325 
L 348.752642 -53.9325 
L 348.752642 -53.9325 
L 358.898097 -53.9325 
L 358.898097 -53.9325 
L 369.043551 -53.9325 
L 369.043551 -53.9325 
L 379.189006 -53.9325 
L 379.189006 -53.9325 
L 379.189006 -72.081373 
L 379.189006 -72.081373 
L 379.189006 -72.081373 
L 369.043551 -72.081373 
L 369.043551 -59.824991 
L 358.898097 -59.824991 
L 358.898097 -56.808036 
L 348.752642 -56.808036 
L 348.752642 -57.232295 
L 338.607188 -57.232295 
L 338.607188 -57.043735 
L 328.461733 -57.043735 
L 328.461733 -56.619476 
L 318.316278 -56.619476 
L 318.316278 -56.996595 
L 308.170824 -56.996595 
L 308.170824 -56.902316 
L 298.025369 -56.902316 
L 298.025369 -57.892254 
L 287.879915 -57.892254 
L 287.879915 -57.138015 
L 277.73446 -57.138015 
L 277.73446 -57.656555 
L 267.589006 -57.656555 
L 267.589006 -58.457933 
L 257.443551 -58.457933 
L 257.443551 -59.730711 
L 247.298097 -59.730711 
L 247.298097 -58.599353 
L 237.152642 -58.599353 
L 237.152642 -58.740773 
L 227.007188 -58.740773 
L 227.007188 -59.212172 
L 216.861733 -59.212172 
L 216.861733 -58.976473 
L 206.716278 -58.976473 
L 206.716278 -59.353592 
L 196.570824 -59.353592 
L 196.570824 -61.427749 
L 186.425369 -61.427749 
L 186.425369 -61.663449 
L 176.279915 -61.663449 
L 176.279915 -63.266206 
L 166.13446 -63.266206 
L 166.13446 -64.303285 
L 155.989006 -64.303285 
L 155.989006 -63.124786 
L 145.843551 -63.124786 
L 145.843551 -60.95635 
L 135.698097 -60.95635 
L 135.698097 -60.90921 
L 125.552642 -60.90921 
L 125.552642 -63.926165 
L 115.407188 -63.926165 
L 115.407188 -65.151803 
L 105.261733 -65.151803 
L 105.261733 -68.922998 
L 95.116278 -68.922998 
L 95.116278 -60.95635 
L 84.970824 -60.95635 
L 84.970824 -53.97964 
L 74.825369 -53.97964 
z
" id="m11ac7a174e" style="stroke:#984ea3;"/>
    </defs>
    <g clip-path="url(#pfac371d4c7)">
     <use style="fill:#984ea3;fill-opacity:0.25;stroke:#984ea3;" x="0" xlink:href="#m11ac7a174e" y="352.096562"/>
    </g>
   </g>
   <g id="PolyCollection_5">
    <defs>
     <path d="M 74.825369 -115.921508 
L 74.825369 -53.9325 
L 84.970824 -53.9325 
L 84.970824 -53.9325 
L 95.116278 -53.9325 
L 95.116278 -53.9325 
L 105.261733 -53.9325 
L 105.261733 -53.9325 
L 115.407188 -53.9325 
L 115.407188 -53.9325 
L 125.552642 -53.9325 
L 125.552642 -53.9325 
L 135.698097 -53.9325 
L 135.698097 -53.9325 
L 145.843551 -53.9325 
L 145.843551 -53.9325 
L 155.989006 -53.9325 
L 155.989006 -53.9325 
L 166.13446 -53.9325 
L 166.13446 -53.9325 
L 176.279915 -53.9325 
L 176.279915 -53.9325 
L 186.425369 -53.9325 
L 186.425369 -53.9325 
L 196.570824 -53.9325 
L 196.570824 -53.9325 
L 206.716278 -53.9325 
L 206.716278 -53.9325 
L 216.861733 -53.9325 
L 216.861733 -53.9325 
L 227.007188 -53.9325 
L 227.007188 -53.9325 
L 237.152642 -53.9325 
L 237.152642 -53.9325 
L 247.298097 -53.9325 
L 247.298097 -53.9325 
L 257.443551 -53.9325 
L 257.443551 -53.9325 
L 267.589006 -53.9325 
L 267.589006 -53.9325 
L 277.73446 -53.9325 
L 277.73446 -53.9325 
L 287.879915 -53.9325 
L 287.879915 -53.9325 
L 298.025369 -53.9325 
L 298.025369 -53.9325 
L 308.170824 -53.9325 
L 308.170824 -53.9325 
L 318.316278 -53.9325 
L 318.316278 -53.9325 
L 328.461733 -53.9325 
L 328.461733 -53.9325 
L 338.607188 -53.9325 
L 338.607188 -53.9325 
L 348.752642 -53.9325 
L 348.752642 -53.9325 
L 358.898097 -53.9325 
L 358.898097 -53.9325 
L 369.043551 -53.9325 
L 369.043551 -53.9325 
L 379.189006 -53.9325 
L 379.189006 -53.9325 
L 379.189006 -53.9325 
L 379.189006 -53.9325 
L 379.189006 -53.9325 
L 369.043551 -53.9325 
L 369.043551 -53.9325 
L 358.898097 -53.9325 
L 358.898097 -53.9325 
L 348.752642 -53.9325 
L 348.752642 -53.9325 
L 338.607188 -53.9325 
L 338.607188 -53.9325 
L 328.461733 -53.9325 
L 328.461733 -53.9325 
L 318.316278 -53.9325 
L 318.316278 -53.9325 
L 308.170824 -53.9325 
L 308.170824 -53.9325 
L 298.025369 -53.9325 
L 298.025369 -53.9325 
L 287.879915 -53.9325 
L 287.879915 -53.9325 
L 277.73446 -53.9325 
L 277.73446 -53.9325 
L 267.589006 -53.9325 
L 267.589006 -53.9325 
L 257.443551 -53.9325 
L 257.443551 -53.9325 
L 247.298097 -53.9325 
L 247.298097 -53.9325 
L 237.152642 -53.9325 
L 237.152642 -53.9325 
L 227.007188 -53.9325 
L 227.007188 -53.9325 
L 216.861733 -53.9325 
L 216.861733 -53.9325 
L 206.716278 -53.9325 
L 206.716278 -53.9325 
L 196.570824 -53.9325 
L 196.570824 -53.9325 
L 186.425369 -53.9325 
L 186.425369 -53.9325 
L 176.279915 -53.9325 
L 176.279915 -54.07392 
L 166.13446 -54.07392 
L 166.13446 -54.922439 
L 155.989006 -54.922439 
L 155.989006 -60.107831 
L 145.843551 -60.107831 
L 145.843551 -67.131681 
L 135.698097 -67.131681 
L 135.698097 -72.458493 
L 125.552642 -72.458493 
L 125.552642 -80.660841 
L 115.407188 -80.660841 
L 115.407188 -115.12013 
L 105.261733 -115.12013 
L 105.261733 -230.848659 
L 95.116278 -230.848659 
L 95.116278 -261.018214 
L 84.970824 -261.018214 
L 84.970824 -115.921508 
L 74.825369 -115.921508 
z
" id="m47ff73603b" style="stroke:#377eb8;"/>
    </defs>
    <g clip-path="url(#pfac371d4c7)">
     <use style="fill:#377eb8;fill-opacity:0.25;stroke:#377eb8;" x="0" xlink:href="#m47ff73603b" y="352.096562"/>
    </g>
   </g>
   <g id="PolyCollection_6">
    <defs>
     <path d="M 74.825369 -53.9325 
L 74.825369 -53.9325 
L 84.970824 -53.9325 
L 84.970824 -53.9325 
L 95.116278 -53.9325 
L 95.116278 -53.9325 
L 105.261733 -53.9325 
L 105.261733 -53.9325 
L 115.407188 -53.9325 
L 115.407188 -53.9325 
L 125.552642 -53.9325 
L 125.552642 -53.9325 
L 135.698097 -53.9325 
L 135.698097 -53.9325 
L 145.843551 -53.9325 
L 145.843551 -53.9325 
L 155.989006 -53.9325 
L 155.989006 -53.9325 
L 166.13446 -53.9325 
L 166.13446 -53.9325 
L 176.279915 -53.9325 
L 176.279915 -53.9325 
L 186.425369 -53.9325 
L 186.425369 -53.9325 
L 196.570824 -53.9325 
L 196.570824 -53.9325 
L 206.716278 -53.9325 
L 206.716278 -53.9325 
L 216.861733 -53.9325 
L 216.861733 -53.9325 
L 227.007188 -53.9325 
L 227.007188 -53.9325 
L 237.152642 -53.9325 
L 237.152642 -53.9325 
L 247.298097 -53.9325 
L 247.298097 -53.9325 
L 257.443551 -53.9325 
L 257.443551 -53.9325 
L 267.589006 -53.9325 
L 267.589006 -53.9325 
L 277.73446 -53.9325 
L 277.73446 -53.9325 
L 287.879915 -53.9325 
L 287.879915 -53.9325 
L 298.025369 -53.9325 
L 298.025369 -53.9325 
L 308.170824 -53.9325 
L 308.170824 -53.9325 
L 318.316278 -53.9325 
L 318.316278 -53.9325 
L 328.461733 -53.9325 
L 328.461733 -53.9325 
L 338.607188 -53.9325 
L 338.607188 -53.9325 
L 348.752642 -53.9325 
L 348.752642 -53.9325 
L 358.898097 -53.9325 
L 358.898097 -53.9325 
L 369.043551 -53.9325 
L 369.043551 -53.9325 
L 379.189006 -53.9325 
L 379.189006 -53.9325 
L 379.189006 -150.475077 
L 379.189006 -150.475077 
L 379.189006 -150.475077 
L 369.043551 -150.475077 
L 369.043551 -53.9325 
L 358.898097 -53.9325 
L 358.898097 -53.9325 
L 348.752642 -53.9325 
L 348.752642 -53.9325 
L 338.607188 -53.9325 
L 338.607188 -53.9325 
L 328.461733 -53.9325 
L 328.461733 -53.9325 
L 318.316278 -53.9325 
L 318.316278 -53.9325 
L 308.170824 -53.9325 
L 308.170824 -53.9325 
L 298.025369 -53.9325 
L 298.025369 -53.9325 
L 287.879915 -53.9325 
L 287.879915 -53.9325 
L 277.73446 -53.9325 
L 277.73446 -53.9325 
L 267.589006 -53.9325 
L 267.589006 -53.9325 
L 257.443551 -53.9325 
L 257.443551 -53.9325 
L 247.298097 -53.9325 
L 247.298097 -53.9325 
L 237.152642 -53.9325 
L 237.152642 -53.9325 
L 227.007188 -53.9325 
L 227.007188 -53.97964 
L 216.861733 -53.97964 
L 216.861733 -53.9325 
L 206.716278 -53.9325 
L 206.716278 -53.9325 
L 196.570824 -53.9325 
L 196.570824 -53.9325 
L 186.425369 -53.9325 
L 186.425369 -53.9325 
L 176.279915 -53.9325 
L 176.279915 -53.9325 
L 166.13446 -53.9325 
L 166.13446 -53.9325 
L 155.989006 -53.9325 
L 155.989006 -53.9325 
L 145.843551 -53.9325 
L 145.843551 -53.9325 
L 135.698097 -53.9325 
L 135.698097 -53.9325 
L 125.552642 -53.9325 
L 125.552642 -53.9325 
L 115.407188 -53.9325 
L 115.407188 -53.9325 
L 105.261733 -53.9325 
L 105.261733 -53.9325 
L 95.116278 -53.9325 
L 95.116278 -53.9325 
L 84.970824 -53.9325 
L 84.970824 -53.9325 
L 74.825369 -53.9325 
z
" id="m8d10c0dc1d" style="stroke:#e41a1c;"/>
    </defs>
    <g clip-path="url(#pfac371d4c7)">
     <use style="fill:#e41a1c;fill-opacity:0.25;stroke:#e41a1c;" x="0" xlink:href="#m8d10c0dc1d" y="352.096562"/>
    </g>
   </g>
   <g id="matplotlib.axis_1">
    <g id="xtick_1">
     <g id="line2d_1">
      <defs>
       <path d="M 0 0 
L 0 6 
" id="mc516f06a91" style="stroke:#000000;stroke-width:0.5;"/>
      </defs>
      <g>
       <use style="stroke:#000000;stroke-width:0.5;" x="74.825369" xlink:href="#mc516f06a91" y="298.164062"/>
      </g>
     </g>
     <g id="text_1">
      <!-- 0.0 -->
      <g transform="translate(78.521151 327.121875)rotate(-90)scale(0.14 -0.14)">
       <defs>
        <path d="M 3.796875 35.40625 
C 3.796875 19.296875 8.296875 -1.203125 27.796875 -1.203125 
C 47.296875 -1.203125 51.796875 19.296875 51.796875 35.40625 
C 51.796875 51.5 47.296875 72 27.796875 72 
C 8.296875 72 3.796875 51.5 3.796875 35.40625 
z
M 12.203125 35.40625 
C 12.203125 45.796875 13.796875 64.796875 27.796875 64.796875 
C 41.796875 64.796875 43.40625 45.796875 43.40625 35.40625 
C 43.40625 25 41.796875 6 27.796875 6 
C 13.796875 6 12.203125 25 12.203125 35.40625 
z
" id="AvenirLTStd-Roman-48"/>
        <path d="M 13.90625 11.40625 
C 10.59375 11.40625 7.90625 8.703125 7.90625 5.40625 
C 7.90625 2.09375 10.796875 -0.59375 13.90625 -0.59375 
C 17 -0.59375 19.90625 2.09375 19.90625 5.40625 
C 19.90625 8.703125 17.203125 11.40625 13.90625 11.40625 
z
" id="AvenirLTStd-Roman-46"/>
       </defs>
       <use xlink:href="#AvenirLTStd-Roman-48"/>
       <use x="55.599991" xlink:href="#AvenirLTStd-Roman-46"/>
       <use x="83.399979" xlink:href="#AvenirLTStd-Roman-48"/>
      </g>
     </g>
    </g>
    <g id="xtick_2">
     <g id="line2d_2">
      <g>
       <use style="stroke:#000000;stroke-width:0.5;" x="135.698097" xlink:href="#mc516f06a91" y="298.164062"/>
      </g>
     </g>
     <g id="text_2">
      <!-- 0.2 -->
      <g transform="translate(139.393878 327.121875)rotate(-90)scale(0.14 -0.14)">
       <defs>
        <path d="M 5 0 
L 50.59375 0 
L 50.59375 7.796875 
L 14.5 7.796875 
L 14.5 8 
L 36.296875 28.5 
C 43.40625 35.203125 50.09375 41.5 50.09375 52.796875 
C 50.09375 65.40625 40.203125 72 28.5 72 
C 17.09375 72 8.203125 65.90625 6.296875 54.296875 
L 15.40625 53.5 
C 16.703125 60.296875 21.703125 64.796875 28.796875 64.796875 
C 35.90625 64.796875 41.703125 60.203125 41.703125 52.796875 
C 41.703125 45.90625 38.40625 42.09375 31.703125 35.59375 
L 5 9.59375 
z
" id="AvenirLTStd-Roman-50"/>
       </defs>
       <use xlink:href="#AvenirLTStd-Roman-48"/>
       <use x="55.599991" xlink:href="#AvenirLTStd-Roman-46"/>
       <use x="83.399979" xlink:href="#AvenirLTStd-Roman-50"/>
      </g>
     </g>
    </g>
    <g id="xtick_3">
     <g id="line2d_3">
      <g>
       <use style="stroke:#000000;stroke-width:0.5;" x="196.570824" xlink:href="#mc516f06a91" y="298.164062"/>
      </g>
     </g>
     <g id="text_3">
      <!-- 0.4 -->
      <g transform="translate(200.266605 327.121875)rotate(-90)scale(0.14 -0.14)">
       <defs>
        <path d="M 41.90625 70.796875 
L 31.59375 70.796875 
L 3.5 25.5 
L 3.5 16.203125 
L 33.5 16.203125 
L 33.5 0 
L 41.90625 0 
L 41.90625 16.203125 
L 52.09375 16.203125 
L 52.09375 24 
L 41.90625 24 
z
M 33.5 24 
L 10.703125 24 
L 33.296875 61 
L 33.5 61 
z
" id="AvenirLTStd-Roman-52"/>
       </defs>
       <use xlink:href="#AvenirLTStd-Roman-48"/>
       <use x="55.599991" xlink:href="#AvenirLTStd-Roman-46"/>
       <use x="83.399979" xlink:href="#AvenirLTStd-Roman-52"/>
      </g>
     </g>
    </g>
    <g id="xtick_4">
     <g id="line2d_4">
      <g>
       <use style="stroke:#000000;stroke-width:0.5;" x="257.443551" xlink:href="#mc516f06a91" y="298.164062"/>
      </g>
     </g>
     <g id="text_4">
      <!-- 0.6 -->
      <g transform="translate(261.139332 327.121875)rotate(-90)scale(0.14 -0.14)">
       <defs>
        <path d="M 39.40625 70.796875 
L 29.59375 70.796875 
L 10.796875 40.90625 
C 7 34.796875 4.09375 29.203125 4.09375 21 
C 4.09375 7.203125 14.40625 -1.203125 27.796875 -1.203125 
C 41.203125 -1.203125 51.5 7.203125 51.5 21 
C 51.5 34.203125 42.40625 43.203125 30.09375 43.203125 
C 27.203125 43.203125 23.203125 42.59375 20.59375 41.09375 
L 20.40625 41.296875 
z
M 27.796875 36 
C 36.296875 36 43.09375 30.203125 43.09375 21 
C 43.09375 11.796875 36.296875 6 27.796875 6 
C 19.296875 6 12.5 11.796875 12.5 21 
C 12.5 30.203125 19.296875 36 27.796875 36 
z
" id="AvenirLTStd-Roman-54"/>
       </defs>
       <use xlink:href="#AvenirLTStd-Roman-48"/>
       <use x="55.599991" xlink:href="#AvenirLTStd-Roman-46"/>
       <use x="83.399979" xlink:href="#AvenirLTStd-Roman-54"/>
      </g>
     </g>
    </g>
    <g id="xtick_5">
     <g id="line2d_5">
      <g>
       <use style="stroke:#000000;stroke-width:0.5;" x="318.316278" xlink:href="#mc516f06a91" y="298.164062"/>
      </g>
     </g>
     <g id="text_5">
      <!-- 0.8 -->
      <g transform="translate(322.01206 327.121875)rotate(-90)scale(0.14 -0.14)">
       <defs>
        <path d="M 7.59375 53.5 
C 7.59375 46.796875 12 39.796875 19.203125 37.90625 
L 19.203125 37.703125 
C 10.703125 35.90625 5.203125 28.40625 5.203125 19.5 
C 5.203125 6.59375 15.203125 -1.203125 27.796875 -1.203125 
C 40.40625 -1.203125 50.40625 6.59375 50.40625 19.5 
C 50.40625 28.40625 44.90625 35.90625 36.40625 37.703125 
L 36.40625 37.90625 
C 43.59375 39.796875 48 46.796875 48 53.5 
C 48 64.59375 39.203125 72 27.796875 72 
C 16.40625 72 7.59375 64.59375 7.59375 53.5 
z
M 16 53.09375 
C 16 59.796875 20.796875 64.796875 27.796875 64.796875 
C 34.796875 64.796875 39.59375 59.796875 39.59375 53.09375 
C 39.59375 46.40625 34.796875 41.40625 27.796875 41.40625 
C 20.796875 41.40625 16 46.40625 16 53.09375 
z
M 13.59375 20.09375 
C 13.59375 28.40625 19.90625 34.203125 27.796875 34.203125 
C 35.703125 34.203125 42 28.40625 42 20.09375 
C 42 11.796875 35.703125 6 27.796875 6 
C 19.90625 6 13.59375 11.796875 13.59375 20.09375 
z
" id="AvenirLTStd-Roman-56"/>
       </defs>
       <use xlink:href="#AvenirLTStd-Roman-48"/>
       <use x="55.599991" xlink:href="#AvenirLTStd-Roman-46"/>
       <use x="83.399979" xlink:href="#AvenirLTStd-Roman-56"/>
      </g>
     </g>
    </g>
    <g id="xtick_6">
     <g id="line2d_6">
      <g>
       <use style="stroke:#000000;stroke-width:0.5;" x="379.189006" xlink:href="#mc516f06a91" y="298.164062"/>
      </g>
     </g>
     <g id="text_6">
      <!-- 1.0 -->
      <g transform="translate(382.884787 327.121875)rotate(-90)scale(0.14 -0.14)">
       <defs>
        <path d="M 36 70.796875 
L 28.703125 70.796875 
L 9.703125 55.40625 
L 14.703125 49.296875 
L 27.40625 60 
L 27.59375 60 
L 27.59375 0 
L 36 0 
z
" id="AvenirLTStd-Roman-49"/>
       </defs>
       <use xlink:href="#AvenirLTStd-Roman-49"/>
       <use x="55.599991" xlink:href="#AvenirLTStd-Roman-46"/>
       <use x="83.399979" xlink:href="#AvenirLTStd-Roman-48"/>
      </g>
     </g>
    </g>
    <g id="text_7">
     <!-- var_prob_b -->
     <g transform="translate(191.082969 341.705)scale(0.14 -0.14)">
      <defs>
       <path d="M 47.203125 46.796875 
L 38.796875 46.796875 
L 24.90625 10.09375 
L 24.703125 10.09375 
L 10.09375 46.796875 
L 1 46.796875 
L 20.09375 0 
L 28.703125 0 
z
" id="AvenirLTStd-Roman-118"/>
       <path d="M 11.703125 35.703125 
C 15.40625 39.09375 20.59375 40.796875 25.59375 40.796875 
C 32.90625 40.796875 37.203125 37.296875 37.203125 30.5 
L 37.203125 29.09375 
L 34.203125 29.09375 
C 22.703125 29.09375 4.703125 28.203125 4.703125 12.703125 
C 4.703125 3.59375 12.59375 -1.203125 22.09375 -1.203125 
C 29.203125 -1.203125 34.40625 2.203125 37.5 7 
L 37.703125 7 
C 37.703125 5 37.703125 2.09375 38.203125 0 
L 45.703125 0 
C 45.296875 2.40625 45 5.40625 45 8.09375 
L 45 28.203125 
C 45 41.40625 39.203125 48 25.40625 48 
C 18.59375 48 11.59375 45.703125 6.796875 40.796875 
z
M 37.203125 22.5 
L 37.203125 19.5 
C 37 11.90625 32.40625 5.40625 23.40625 5.40625 
C 17.5 5.40625 13.09375 7.59375 13.09375 13.5 
C 13.09375 19.796875 19.5 22.5 29.40625 22.5 
z
" id="AvenirLTStd-Roman-97"/>
       <path d="M 7.40625 0 
L 15.203125 0 
L 15.203125 22.796875 
C 15.203125 33.5 19.40625 40.203125 28.90625 40.203125 
C 30.296875 40.203125 31.796875 40 33.09375 39.59375 
L 33.59375 47.5 
C 32.5 47.90625 31.40625 48 30.40625 48 
C 22.703125 48 16.90625 43.703125 14.796875 39.09375 
L 14.59375 39.09375 
C 14.59375 41.703125 14.40625 44.296875 14.40625 46.796875 
L 7 46.796875 
C 7 43.703125 7.40625 40 7.40625 35.703125 
z
" id="AvenirLTStd-Roman-114"/>
       <path d="M 0 -12.5 
L 50 -12.5 
L 50 -7.5 
L 0 -7.5 
z
" id="AvenirLTStd-Roman-95"/>
       <path d="M 7 -22.796875 
L 14.796875 -22.796875 
L 14.796875 8.296875 
L 15 8.296875 
C 17.90625 3 24.59375 -1.203125 33 -1.203125 
C 46.09375 -1.203125 56.40625 9.40625 56.40625 23.40625 
C 56.40625 37.59375 46.5 48 31.796875 48 
C 25 48 19.296875 45 15 40 
L 14.796875 40 
L 14.796875 46.796875 
L 7 46.796875 
z
M 14.796875 23.40625 
C 14.796875 33.203125 21.296875 40.796875 31.40625 40.796875 
C 41.5 40.796875 48 33.203125 48 23.40625 
C 48 13.59375 41.5 6 31.40625 6 
C 21.296875 6 14.796875 13.59375 14.796875 23.40625 
z
" id="AvenirLTStd-Roman-112"/>
       <path d="M 4.703125 23.40625 
C 4.703125 8.796875 15.296875 -1.203125 29.703125 -1.203125 
C 44.09375 -1.203125 54.703125 8.796875 54.703125 23.40625 
C 54.703125 38 44.09375 48 29.703125 48 
C 15.296875 48 4.703125 38 4.703125 23.40625 
z
M 13.09375 23.40625 
C 13.09375 33.203125 19.59375 40.796875 29.703125 40.796875 
C 39.796875 40.796875 46.296875 33.203125 46.296875 23.40625 
C 46.296875 13.59375 39.796875 6 29.703125 6 
C 19.59375 6 13.09375 13.59375 13.09375 23.40625 
z
" id="AvenirLTStd-Roman-111"/>
       <path d="M 7 0 
L 14.796875 0 
L 14.796875 8.296875 
L 15 8.296875 
C 17.90625 3 24.59375 -1.203125 33 -1.203125 
C 46.09375 -1.203125 56.40625 9.40625 56.40625 23.40625 
C 56.40625 37.59375 46.5 48 31.796875 48 
C 25 48 19.296875 45 15 40 
L 14.796875 40 
L 14.796875 75.59375 
L 7 75.59375 
z
M 14.796875 23.40625 
C 14.796875 33.203125 21.296875 40.796875 31.40625 40.796875 
C 41.5 40.796875 48 33.203125 48 23.40625 
C 48 13.59375 41.5 6 31.40625 6 
C 21.296875 6 14.796875 13.59375 14.796875 23.40625 
z
" id="AvenirLTStd-Roman-98"/>
      </defs>
      <use xlink:href="#AvenirLTStd-Roman-118"/>
      <use x="48.199997" xlink:href="#AvenirLTStd-Roman-97"/>
      <use x="100.099991" xlink:href="#AvenirLTStd-Roman-114"/>
      <use x="135.299988" xlink:href="#AvenirLTStd-Roman-95"/>
      <use x="185.299973" xlink:href="#AvenirLTStd-Roman-112"/>
      <use x="246.399963" xlink:href="#AvenirLTStd-Roman-114"/>
      <use x="281.59996" xlink:href="#AvenirLTStd-Roman-111"/>
      <use x="340.999954" xlink:href="#AvenirLTStd-Roman-98"/>
      <use x="402.099945" xlink:href="#AvenirLTStd-Roman-95"/>
      <use x="452.09993" xlink:href="#AvenirLTStd-Roman-98"/>
     </g>
    </g>
   </g>
   <g id="matplotlib.axis_2">
    <g id="ytick_1">
     <g id="line2d_7">
      <defs>
       <path d="M 0 0 
L 6 0 
" id="mbd6cc2e5c9" style="stroke:#000000;stroke-width:0.5;"/>
      </defs>
      <g>
       <use style="stroke:#000000;stroke-width:0.5;" x="59.607188" xlink:href="#mbd6cc2e5c9" y="298.164062"/>
      </g>
     </g>
     <g id="text_8">
      <!-- 0 -->
      <g transform="translate(48.324063 303.455625)scale(0.14 -0.14)">
       <use xlink:href="#AvenirLTStd-Roman-48"/>
      </g>
     </g>
    </g>
    <g id="ytick_2">
     <g id="line2d_8">
      <g>
       <use style="stroke:#000000;stroke-width:0.5;" x="59.607188" xlink:href="#mbd6cc2e5c9" y="251.024132"/>
      </g>
     </g>
     <g id="text_9">
      <!-- 1000 -->
      <g transform="translate(24.974688 256.315695)scale(0.14 -0.14)">
       <use xlink:href="#AvenirLTStd-Roman-49"/>
       <use x="55.599991" xlink:href="#AvenirLTStd-Roman-48"/>
       <use x="111.199982" xlink:href="#AvenirLTStd-Roman-48"/>
       <use x="166.799973" xlink:href="#AvenirLTStd-Roman-48"/>
      </g>
     </g>
    </g>
    <g id="ytick_3">
     <g id="line2d_9">
      <g>
       <use style="stroke:#000000;stroke-width:0.5;" x="59.607188" xlink:href="#mbd6cc2e5c9" y="203.884202"/>
      </g>
     </g>
     <g id="text_10">
      <!-- 2000 -->
      <g transform="translate(24.974688 209.175764)scale(0.14 -0.14)">
       <use xlink:href="#AvenirLTStd-Roman-50"/>
       <use x="55.599991" xlink:href="#AvenirLTStd-Roman-48"/>
       <use x="111.199982" xlink:href="#AvenirLTStd-Roman-48"/>
       <use x="166.799973" xlink:href="#AvenirLTStd-Roman-48"/>
      </g>
     </g>
    </g>
    <g id="ytick_4">
     <g id="line2d_10">
      <g>
       <use style="stroke:#000000;stroke-width:0.5;" x="59.607188" xlink:href="#mbd6cc2e5c9" y="156.744271"/>
      </g>
     </g>
     <g id="text_11">
      <!-- 3000 -->
      <g transform="translate(24.974688 162.035834)scale(0.14 -0.14)">
       <defs>
        <path d="M 20.40625 33.59375 
L 23 33.59375 
C 31.703125 33.59375 40.90625 30.296875 40.90625 19.90625 
C 40.90625 11.703125 34.5 6 26.5 6 
C 18.703125 6 14.59375 8.90625 12.203125 16.5 
L 3.703125 13.703125 
C 7.296875 3.203125 15.796875 -1.203125 26.5 -1.203125 
C 39.09375 -1.203125 49.90625 5.796875 49.90625 19.296875 
C 49.90625 28.203125 44.40625 35.59375 35.40625 37.09375 
L 35.40625 37.296875 
C 42.5 39.5 47.5 46.09375 47.5 53.5 
C 47.5 65.703125 37.703125 72 26.40625 72 
C 17.40625 72 9.296875 68 5.90625 60 
L 14 56.90625 
C 16.5 62.09375 21.09375 64.796875 27 64.796875 
C 34.09375 64.796875 39.09375 60.296875 39.09375 53.09375 
C 39.09375 42.40625 30 40.796875 23 40.796875 
L 20.40625 40.796875 
z
" id="AvenirLTStd-Roman-51"/>
       </defs>
       <use xlink:href="#AvenirLTStd-Roman-51"/>
       <use x="55.599991" xlink:href="#AvenirLTStd-Roman-48"/>
       <use x="111.199982" xlink:href="#AvenirLTStd-Roman-48"/>
       <use x="166.799973" xlink:href="#AvenirLTStd-Roman-48"/>
      </g>
     </g>
    </g>
    <g id="ytick_5">
     <g id="line2d_11">
      <g>
       <use style="stroke:#000000;stroke-width:0.5;" x="59.607188" xlink:href="#mbd6cc2e5c9" y="109.604341"/>
      </g>
     </g>
     <g id="text_12">
      <!-- 4000 -->
      <g transform="translate(24.974688 114.895903)scale(0.14 -0.14)">
       <use xlink:href="#AvenirLTStd-Roman-52"/>
       <use x="55.599991" xlink:href="#AvenirLTStd-Roman-48"/>
       <use x="111.199982" xlink:href="#AvenirLTStd-Roman-48"/>
       <use x="166.799973" xlink:href="#AvenirLTStd-Roman-48"/>
      </g>
     </g>
    </g>
    <g id="text_13">
     <!-- Count -->
     <g transform="translate(17.783125 208.778281)rotate(-90)scale(0.14 -0.14)">
      <defs>
       <path d="M 65.703125 61.5 
C 59.703125 69.296875 50.296875 72.59375 40.703125 72.59375 
C 19.703125 72.59375 4.703125 56.203125 4.703125 35.40625 
C 4.703125 13.90625 20.40625 -1.796875 40.703125 -1.796875 
C 52 -1.796875 61.203125 2.09375 67.5 10.59375 
L 61.203125 15.90625 
C 56.203125 9.5 49.296875 6 40.703125 6 
C 24.796875 6 13.703125 19 13.703125 35.40625 
C 13.703125 50.90625 24.90625 64.796875 40.703125 64.796875 
C 47.5 64.796875 54.203125 61.90625 58.40625 56.203125 
z
" id="AvenirLTStd-Roman-67"/>
       <path d="M 48.203125 46.796875 
L 40.40625 46.796875 
L 40.40625 24 
C 40.40625 13.296875 36 6 25.90625 6 
C 18.59375 6 15.203125 10.90625 15.203125 18.703125 
L 15.203125 46.796875 
L 7.40625 46.796875 
L 7.40625 17.90625 
C 7.40625 6.59375 12.90625 -1.203125 25.203125 -1.203125 
C 32.90625 -1.203125 38.703125 3.09375 40.796875 7.703125 
L 41 7.703125 
C 41 5.09375 41.203125 2.5 41.203125 0 
L 48.59375 0 
C 48.59375 3.09375 48.203125 6.796875 48.203125 11.09375 
z
" id="AvenirLTStd-Roman-117"/>
       <path d="M 7.40625 0 
L 15.203125 0 
L 15.203125 22.796875 
C 15.203125 33.5 19.59375 40.796875 29.703125 40.796875 
C 37 40.796875 40.40625 35.90625 40.40625 28.09375 
L 40.40625 0 
L 48.203125 0 
L 48.203125 28.90625 
C 48.203125 40.203125 42.703125 48 30.40625 48 
C 22.703125 48 16.90625 43.703125 14.796875 39.09375 
L 14.59375 39.09375 
C 14.59375 41.703125 14.40625 44.296875 14.40625 46.796875 
L 7 46.796875 
C 7 43.703125 7.40625 40 7.40625 35.703125 
z
" id="AvenirLTStd-Roman-110"/>
       <path d="M 33 46.796875 
L 19.203125 46.796875 
L 19.203125 60.09375 
L 11.40625 60.09375 
L 11.40625 46.796875 
L 1.203125 46.796875 
L 1.203125 40.203125 
L 11.40625 40.203125 
L 11.40625 14.5 
C 11.40625 4.796875 13.203125 -1.203125 24.296875 -1.203125 
C 27.203125 -1.203125 30.703125 -0.703125 33.40625 0.5 
L 33.09375 7.59375 
C 31 6.5 28.5 6 26.203125 6 
C 19.296875 6 19.203125 10.796875 19.203125 16.796875 
L 19.203125 40.203125 
L 33 40.203125 
z
" id="AvenirLTStd-Roman-116"/>
      </defs>
      <use xlink:href="#AvenirLTStd-Roman-67"/>
      <use x="70.399994" xlink:href="#AvenirLTStd-Roman-111"/>
      <use x="129.799988" xlink:href="#AvenirLTStd-Roman-117"/>
      <use x="185.399979" xlink:href="#AvenirLTStd-Roman-110"/>
      <use x="240.999969" xlink:href="#AvenirLTStd-Roman-116"/>
     </g>
    </g>
   </g>
   <g id="patch_3">
    <path d="M 59.607188 298.164062 
L 59.607188 80.724062 
" style="fill:none;stroke:#000000;stroke-linecap:square;stroke-linejoin:miter;stroke-width:2;"/>
   </g>
   <g id="patch_4">
    <path d="M 394.407188 298.164062 
L 394.407188 80.724062 
" style="fill:none;stroke:#000000;stroke-linecap:square;stroke-linejoin:miter;stroke-width:2;"/>
   </g>
   <g id="patch_5">
    <path d="M 59.607188 298.164062 
L 394.407188 298.164062 
" style="fill:none;stroke:#000000;stroke-linecap:square;stroke-linejoin:miter;stroke-width:2;"/>
   </g>
   <g id="patch_6">
    <path d="M 59.607188 80.724062 
L 394.407188 80.724062 
" style="fill:none;stroke:#000000;stroke-linecap:square;stroke-linejoin:miter;stroke-width:2;"/>
   </g>
   <g id="legend_1">
    <g id="patch_7">
     <path d="M 125.7325 73.724062 
L 328.281875 73.724062 
Q 331.081875 73.724062 331.081875 70.924062 
L 331.081875 10 
Q 331.081875 7.2 328.281875 7.2 
L 125.7325 7.2 
Q 122.9325 7.2 122.9325 10 
L 122.9325 70.924062 
Q 122.9325 73.724062 125.7325 73.724062 
z
" style="fill:#ffffff;opacity:0.8;stroke:#cccccc;stroke-linejoin:miter;"/>
    </g>
    <g id="text_14">
     <!-- cluster -->
     <g transform="translate(206.259844 23.383125)scale(0.14 -0.14)">
      <defs>
       <path d="M 46.90625 40.59375 
C 42.203125 45.703125 35.796875 48 28.90625 48 
C 14.5 48 4.703125 37.59375 4.703125 23.40625 
C 4.703125 9 14.40625 -1.203125 28.90625 -1.203125 
C 35.703125 -1.203125 42.09375 1.09375 46.59375 6.296875 
L 40.796875 11.796875 
C 37.90625 7.796875 34 6 28.90625 6 
C 19.40625 6 13.09375 13.796875 13.09375 23.40625 
C 13.09375 33 18.40625 40.796875 28.90625 40.796875 
C 33.59375 40.796875 37.40625 39.09375 40.703125 35.09375 
z
" id="AvenirLTStd-Roman-99"/>
       <path d="M 8.09375 0 
L 15.90625 0 
L 15.90625 75.59375 
L 8.09375 75.59375 
z
" id="AvenirLTStd-Roman-108"/>
       <path d="M 2.203125 7.5 
C 6.796875 0.90625 12.5 -1.203125 20.40625 -1.203125 
C 29.703125 -1.203125 39.09375 2.90625 39.09375 13.5 
C 39.09375 22.90625 32.09375 25.90625 23.796875 27.5 
C 17.59375 28.703125 12 30.40625 12 34.296875 
C 12 38.703125 16.90625 40.796875 21.203125 40.796875 
C 25.796875 40.796875 29.09375 38.5 31.09375 35.203125 
L 37.59375 39.5 
C 34.40625 45.5 28.296875 48 21.703125 48 
C 13 48 4.203125 43.296875 4.203125 34.203125 
C 4.203125 24.5 11.796875 22.59375 20.703125 20.59375 
C 25.703125 19.5 30.703125 18.203125 30.703125 13.203125 
C 30.703125 8.09375 25.296875 6 20.40625 6 
C 14.90625 6 11.5 8.5 8.40625 12.296875 
z
" id="AvenirLTStd-Roman-115"/>
       <path d="M 43.296875 13.09375 
C 39.59375 8.40625 35.09375 6 28.40625 6 
C 19.90625 6 13.703125 12.90625 13.09375 21 
L 50.90625 21 
L 50.90625 23.5 
C 50.90625 39 41.90625 48 28.703125 48 
C 14.90625 48 4.703125 37.90625 4.703125 23.40625 
C 4.703125 9.796875 13.703125 -1.203125 28.40625 -1.203125 
C 37.09375 -1.203125 43.703125 1.40625 49.203125 8.5 
z
M 13.09375 27.59375 
C 14.09375 35.5 19.796875 40.796875 28.40625 40.796875 
C 37 40.796875 42.203125 35.5 42.5 27.59375 
z
" id="AvenirLTStd-Roman-101"/>
      </defs>
      <use xlink:href="#AvenirLTStd-Roman-99"/>
      <use x="48.199997" xlink:href="#AvenirLTStd-Roman-108"/>
      <use x="72.199982" xlink:href="#AvenirLTStd-Roman-117"/>
      <use x="127.799973" xlink:href="#AvenirLTStd-Roman-115"/>
      <use x="170.399963" xlink:href="#AvenirLTStd-Roman-116"/>
      <use x="205.59996" xlink:href="#AvenirLTStd-Roman-101"/>
      <use x="261.199951" xlink:href="#AvenirLTStd-Roman-114"/>
     </g>
    </g>
    <g id="patch_8">
     <path d="M 128.5325 44.157812 
L 156.5325 44.157812 
L 156.5325 34.357812 
L 128.5325 34.357812 
z
" style="fill:#e41a1c;fill-opacity:0.25;stroke:#e41a1c;stroke-linejoin:miter;"/>
    </g>
    <g id="text_15">
     <!-- 0 -->
     <g transform="translate(167.7325 44.157812)scale(0.14 -0.14)">
      <use xlink:href="#AvenirLTStd-Roman-48"/>
     </g>
    </g>
    <g id="patch_9">
     <path d="M 128.5325 64.9325 
L 156.5325 64.9325 
L 156.5325 55.1325 
L 128.5325 55.1325 
z
" style="fill:#377eb8;fill-opacity:0.25;stroke:#377eb8;stroke-linejoin:miter;"/>
    </g>
    <g id="text_16">
     <!-- 1 -->
     <g transform="translate(167.7325 64.9325)scale(0.14 -0.14)">
      <use xlink:href="#AvenirLTStd-Roman-49"/>
     </g>
    </g>
    <g id="patch_10">
     <path d="M 203.515625 44.157812 
L 231.515625 44.157812 
L 231.515625 34.357812 
L 203.515625 34.357812 
z
" style="fill:#984ea3;fill-opacity:0.25;stroke:#984ea3;stroke-linejoin:miter;"/>
    </g>
    <g id="text_17">
     <!-- 2 -->
     <g transform="translate(242.715625 44.157812)scale(0.14 -0.14)">
      <use xlink:href="#AvenirLTStd-Roman-50"/>
     </g>
    </g>
    <g id="patch_11">
     <path d="M 203.515625 64.9325 
L 231.515625 64.9325 
L 231.515625 55.1325 
L 203.515625 55.1325 
z
" style="fill:#ffff33;fill-opacity:0.25;stroke:#ffff33;stroke-linejoin:miter;"/>
    </g>
    <g id="text_18">
     <!-- 3 -->
     <g transform="translate(242.715625 64.9325)scale(0.14 -0.14)">
      <use xlink:href="#AvenirLTStd-Roman-51"/>
     </g>
    </g>
    <g id="patch_12">
     <path d="M 278.49875 44.157812 
L 306.49875 44.157812 
L 306.49875 34.357812 
L 278.49875 34.357812 
z
" style="fill:#f781bf;fill-opacity:0.25;stroke:#f781bf;stroke-linejoin:miter;"/>
    </g>
    <g id="text_19">
     <!-- 4 -->
     <g transform="translate(317.69875 44.157812)scale(0.14 -0.14)">
      <use xlink:href="#AvenirLTStd-Roman-52"/>
     </g>
    </g>
    <g id="patch_13">
     <path d="M 278.49875 64.9325 
L 306.49875 64.9325 
L 306.49875 55.1325 
L 278.49875 55.1325 
z
" style="fill:#999999;fill-opacity:0.25;stroke:#999999;stroke-linejoin:miter;"/>
    </g>
    <g id="text_20">
     <!-- 5 -->
     <g transform="translate(317.69875 64.9325)scale(0.14 -0.14)">
      <defs>
       <path d="M 47.40625 70.796875 
L 10.296875 70.796875 
L 9.59375 34 
C 13.796875 36.5 19.203125 38.40625 24 38.40625 
C 33.90625 38.40625 41.5 32.703125 41.5 22.296875 
C 41.5 12.5 34.796875 6 26.296875 6 
C 20.296875 6 15.5 9.59375 13.09375 14.90625 
L 4.703125 11.703125 
C 8.5 3.90625 14.90625 -1.203125 25.59375 -1.203125 
C 39.40625 -1.203125 49.90625 8.203125 49.90625 22.296875 
C 49.90625 35.59375 40.90625 45.59375 27.296875 45.59375 
C 24.40625 45.59375 20.90625 45.203125 18.203125 43.90625 
L 18.5 63 
L 47.40625 63 
z
" id="AvenirLTStd-Roman-53"/>
      </defs>
      <use xlink:href="#AvenirLTStd-Roman-53"/>
     </g>
    </g>
   </g>
  </g>
 </g>
 <defs>
  <clipPath id="pfac371d4c7">
   <rect height="217.44" width="334.8" x="59.607188" y="80.724062"/>
  </clipPath>
 </defs>
</svg>
